<?xml version="1.0" encoding="UTF-8"?>
<svg version="1.1" xmlns="http://www.w3.org/2000/svg" width="1000" height="1000">
<path d="M0 0 C1.25661045 1.07565854 2.50715882 2.15846122 3.75 3.25 C5.07550672 4.26035128 6.4067479 5.2633635 7.75 6.25 C8.18828125 5.82589844 8.6265625 5.40179688 9.078125 4.96484375 C27.05024977 -11.65571879 47.77548954 -13.70446235 71.22167969 -12.96777344 C89.55820341 -11.83601457 107.2335856 -4.11764139 120.75 8.25 C121.43191406 8.84039062 122.11382813 9.43078125 122.81640625 10.0390625 C130.48250017 17.09006865 136.49625919 26.2722019 139.8125 36.125 C142.84911385 43.40645785 150.13050488 45.39681395 156.90771484 48.37988281 C160.6105248 50.12873183 163.65124304 52.61453759 166.75 55.25 C167.78125 56.03375 168.8125 56.8175 169.875 57.625 C176.00589716 63.22277566 179.81449102 69.53017591 182.75 77.25 C183.1625 78.3225 183.575 79.395 184 80.5 C185.11483414 86.07417072 184.90333291 91.58520068 184.75 97.25 C185.925625 97.7140625 185.925625 97.7140625 187.125 98.1875 C189.75 99.25 189.75 99.25 191.75 100.25 C191.75 100.91 191.75 101.57 191.75 102.25 C192.34554688 102.48203125 192.94109375 102.7140625 193.5546875 102.953125 C196.31193715 104.58196287 197.27778587 106.24041538 198.875 109 C199.37257813 109.84046875 199.87015625 110.6809375 200.3828125 111.546875 C202.87081991 116.46602107 204.02550293 121.01571113 204.4375 126.5 C204.52386719 127.53640625 204.61023438 128.5728125 204.69921875 129.640625 C204.74125212 132.6282278 204.49359874 135.15339221 204.0703125 138.0859375 C203.4652347 143.62284233 204.84665017 147.55326945 206.9375 152.625 C210.53703467 162.02786607 212.68812026 171.3692267 214.38037109 181.27734375 C215.14538701 185.36012356 215.71621145 187.3481153 218.75 190.25 C218.75 190.91 218.75 191.57 218.75 192.25 C219.74 192.58 220.73 192.91 221.75 193.25 C223.57470012 195.36205447 225.26748205 197.46001529 226.9375 199.6875 C227.40091797 200.28626953 227.86433594 200.88503906 228.34179688 201.50195312 C231.75 205.98431747 231.75 205.98431747 231.75 208.25 C232.41 208.25 233.07 208.25 233.75 208.25 C236.44829121 211.66119201 238.56542203 215.49540665 240.75 219.25 C241.36367432 220.3033252 241.36367432 220.3033252 241.98974609 221.37792969 C251.44529225 237.85162381 257.91570064 254.78380171 254.20703125 274.07421875 C252.3158014 280.22855234 249.00259888 286.41750127 244.75 291.25 C244.09 291.25 243.43 291.25 242.75 291.25 C242.75 291.91 242.75 292.57 242.75 293.25 C224.84380401 307.75767308 200.85018394 308.80072501 178.875 308.625 C177.94333008 308.62333832 177.01166016 308.62167664 176.05175781 308.6199646 C163.06800722 308.59291512 150.335682 308.05654027 137.48876953 306.05419922 C130.14856345 304.99351653 124.74587648 305.9056855 117.75 308.25 C106.85014971 311.155494 95.16421385 311.10739311 84.05859375 309.2734375 C80.75807581 309.2399297 77.89554281 310.31125743 74.75 311.25 C75.30017141 317.35158825 75.85156378 323.45306452 76.40405273 329.55444336 C76.59155711 331.62700469 76.77873678 333.69959542 76.96557617 335.7722168 C77.2352959 338.76358845 77.50621086 341.7548499 77.77734375 344.74609375 C77.85967758 345.66208847 77.94201141 346.57808319 78.02684021 347.52183533 C78.47771565 352.48231649 78.98067767 357.43010149 79.57917786 362.37510681 C79.75 364.25 79.75 364.25 79.609375 367.0703125 C79.4769007 369.86173532 79.64073207 371.6674856 80.75 374.25 C83.70733829 376.33862017 86.76954933 377.75043384 90.05078125 379.27734375 C103.02308408 385.68303882 112.7927913 399.03736008 117.75 412.25 C119.14681791 417.83727162 119.44521335 423.53469955 118.75 429.25 C116.75 432 116.75 432 113.75 433.25 C98.30267526 435.14703988 81.87004779 426.14865422 70.01953125 417.046875 C69.27058594 416.45390625 68.52164062 415.8609375 67.75 415.25 C66.99074219 414.71890625 66.23148437 414.1878125 65.44921875 413.640625 C64.88847656 413.18171875 64.32773437 412.7228125 63.75 412.25 C63.75 411.59 63.75 410.93 63.75 410.25 C63.09 410.25 62.43 410.25 61.75 410.25 C61.75 409.59 61.75 408.93 61.75 408.25 C61.09 408.25 60.43 408.25 59.75 408.25 C56.25223076 401.25446152 57.46584913 390.72153833 57.21484375 383.0703125 C57.17186661 381.8223288 57.12888947 380.57434509 57.08460999 379.2885437 C56.97198533 375.98542818 56.8625627 372.68222501 56.75421143 369.37896729 C56.64449721 366.08322463 56.52752323 362.78773474 56.41210938 359.4921875 C55.93195779 345.40575276 55.60990438 331.34465684 55.75 317.25 C54.45570068 317.58076538 54.45570068 317.58076538 53.13525391 317.91821289 C52.14187012 318.17207764 51.14848633 318.42594238 50.125 318.6875 C49.08085937 318.95433594 48.03671875 319.22117187 46.9609375 319.49609375 C43.90108876 320.21452539 40.8551949 320.76976716 37.75 321.25 C37.72421875 321.83007812 37.6984375 322.41015625 37.671875 323.0078125 C37.17841752 329.80406779 35.50469271 333.77783987 30.3125 338.4375 C20.72227903 343.31673523 9.30267565 344.02616672 -1.25 345.25 C-2.24257813 345.38664062 -3.23515625 345.52328125 -4.2578125 345.6640625 C-10.92180527 346.48044908 -16.72485668 345.7771612 -23.25 344.25 C-24.99881383 351.1178114 -25.61982585 357.55408388 -25.8125 364.625 C-25.85294434 365.69484131 -25.89338867 366.76468262 -25.93505859 367.86694336 C-26.15179469 373.78178285 -26.26714225 379.68669648 -26.28515625 385.60546875 C-26.30823853 387.41168701 -26.30823853 387.41168701 -26.33178711 389.25439453 C-26.35996108 391.57421048 -26.36078882 393.89456849 -26.33032227 396.21435547 C-26.44208037 403.08513988 -27.48334362 406.80178722 -32.44921875 411.65600586 C-33.04347656 412.18202393 -33.63773438 412.70804199 -34.25 413.25 C-35.01183594 413.9925 -35.77367187 414.735 -36.55859375 415.5 C-48.53928174 425.34834536 -65.29076759 433.86725603 -81.08984375 433.65625 C-83.25 433.25 -83.25 433.25 -86.3125 430.6875 C-89.95477988 424.22539054 -88.1275369 418.20984852 -86.27734375 411.36328125 C-80.94840054 395.21435449 -68.72699216 384.29093507 -54.25 376.25 C-51.30078125 375.4765625 -51.30078125 375.4765625 -49.25 375.25 C-49.18941406 374.27160156 -49.12882813 373.29320312 -49.06640625 372.28515625 C-48.61678488 365.25031117 -48.10950635 358.24883741 -47.25 351.25 C-47.95125 351.085 -48.6525 350.92 -49.375 350.75 C-56.71827842 346.9187243 -59.22002617 339.39800635 -61.5859375 331.88671875 C-62.25 329.25 -62.25 329.25 -62.25 326.25 C-63.45011719 326.51554687 -64.65023437 326.78109375 -65.88671875 327.0546875 C-85.03421685 331.17343366 -103.64238923 332.4354249 -123.1875 332.5625 C-124.02511871 332.57212769 -124.86273743 332.58175537 -125.72573853 332.5916748 C-139.37683015 332.72606786 -151.83884587 331.39748812 -164.6875 326.375 C-165.69623169 325.9886438 -165.69623169 325.9886438 -166.7253418 325.59448242 C-172.84716357 323.16651578 -177.8174014 320.17655387 -182.25 315.25 C-182.25 314.59 -182.25 313.93 -182.25 313.25 C-182.91 313.25 -183.57 313.25 -184.25 313.25 C-185.96964442 310.94915172 -187.5607461 308.65338718 -189.125 306.25 C-189.55941406 305.60160156 -189.99382812 304.95320313 -190.44140625 304.28515625 C-194.55566503 298.04581485 -198.11307162 291.7977135 -199.9375 284.5 C-200.16824219 283.59765625 -200.39898437 282.6953125 -200.63671875 281.765625 C-200.83910156 280.93546875 -201.04148438 280.1053125 -201.25 279.25 C-201.42418457 278.61707031 -201.59836914 277.98414063 -201.77783203 277.33203125 C-202.55072293 273.92395806 -202.43447649 270.47703371 -202.4375 267 C-202.44974609 266.27425781 -202.46199219 265.54851562 -202.47460938 264.80078125 C-202.50214348 254.50302714 -199.17351287 244.54862091 -193.5625 235.9375 C-190.91790913 231.92569425 -190.91790913 231.92569425 -190.25 227.25 C-191.16166405 225.49179075 -192.08638822 223.73618306 -193.1328125 222.0546875 C-202.06145955 207.63148841 -201.21720958 185.90232757 -197.625 169.875 C-195.50848292 161.11856491 -192.41436308 152.67207405 -189.25 144.25 C-188.11666584 140.84999753 -188.51620262 139.67604046 -189.25 136.25 C-190.0256132 124.86936786 -188.33036034 115.8947095 -182.25 106.25 C-181.59 106.25 -180.93 106.25 -180.25 106.25 C-180.15460938 105.64671875 -180.05921875 105.0434375 -179.9609375 104.421875 C-179.09262859 101.76923897 -178.1533353 101.05734311 -175.875 99.5 C-175.26914063 99.07203125 -174.66328125 98.6440625 -174.0390625 98.203125 C-172.25 97.25 -172.25 97.25 -169.25 97.25 C-169.58 96.26 -169.91 95.27 -170.25 94.25 C-171.16197506 81.48234911 -166.22692623 70.62752977 -158 61.125 C-149.3675893 51.95394956 -139.26251545 45.25417182 -127.25 41.25 C-125.90112618 38.47616561 -125.90112618 38.47616561 -124.6875 35.0625 C-116.9571652 15.63981369 -102.13968641 2.14296839 -83.20703125 -6.17578125 C-57.72984835 -16.73486202 -22.61928733 -17.55137452 0 0 Z M210.75 214.25 C210.31429687 215.1678125 209.87859375 216.085625 209.4296875 217.03125 C204.12619725 228.03891864 198.99783616 236.18482515 188.75 243.25 C187.98816406 243.7759375 187.22632813 244.301875 186.44140625 244.84375 C180.53501578 248.64556455 174.40616971 250.94929156 167.75390625 253.07421875 C164.17888595 254.47262707 164.17888595 254.47262707 161.75 257.25 C160.73130683 260.02523818 160.73130683 260.02523818 159.9375 263.1875 C158.24295065 269.04318213 155.96841104 274.21631285 153.1171875 279.59375 C151.82607339 282.10220026 150.75248045 284.61490852 149.75 287.25 C172.65881299 291.37427949 205.4597575 293.26755148 225.8828125 280.58984375 C230.86113804 277.01753065 234.42035594 273.90485633 235.55859375 267.5546875 C237.00128998 250.18344721 228.5759825 235.805937 219.00292969 222.08105469 C218.18273596 220.88240835 217.39015805 219.66427644 216.62988281 218.42675781 C215.5230848 216.57832938 215.5230848 216.57832938 213.75 214.25 C212.76 214.25 211.77 214.25 210.75 214.25 Z M-175.25 243.25 C-181.39697159 251.01252181 -183.88600735 260.17315632 -183.00390625 269.98828125 C-181.05279181 282.19569637 -175.66769841 294.88728966 -166.25 303.25 C-153.68738121 311.6250792 -139.98203477 312.8274751 -125.25 313.25 C-124.074375 313.29125 -122.89875 313.3325 -121.6875 313.375 C-112.10572199 313.55244033 -102.73705337 312.45470519 -93.25 311.25 C-93.58 310.59 -93.91 309.93 -94.25 309.25 C-96.68715729 308.61747824 -99.10012817 308.07465316 -101.5625 307.5625 C-114.9013188 304.49725135 -126.68530214 297.05703343 -134.67578125 285.8046875 C-139.94481575 277.25394666 -144.63194394 268.35078787 -146.38671875 258.38671875 C-147.63096891 255.30705884 -149.29555014 254.6738807 -152.25 253.25 C-154.33957725 252.42059034 -156.44513515 251.63065835 -158.5625 250.875 C-163.97942036 248.85440272 -168.44204472 246.42506481 -173.25 243.25 C-173.91 243.25 -174.57 243.25 -175.25 243.25 Z M-93.25 309.25 C-92.59 309.91 -91.93 310.57 -91.25 311.25 C-91.25 310.59 -91.25 309.93 -91.25 309.25 C-91.91 309.25 -92.57 309.25 -93.25 309.25 Z M-89.25 309.25 C-89.25 309.58 -89.25 309.91 -89.25 310.25 C-87.6 310.25 -85.95 310.25 -84.25 310.25 C-84.25 309.92 -84.25 309.59 -84.25 309.25 C-85.9 309.25 -87.55 309.25 -89.25 309.25 Z " fill="#D27C75" transform="translate(420.25,306.75)"/>
<path d="M0 0 C1.25661045 1.07565854 2.50715882 2.15846122 3.75 3.25 C5.07550672 4.26035128 6.4067479 5.2633635 7.75 6.25 C8.18828125 5.82589844 8.6265625 5.40179688 9.078125 4.96484375 C27.05024977 -11.65571879 47.77548954 -13.70446235 71.22167969 -12.96777344 C89.55820341 -11.83601457 107.2335856 -4.11764139 120.75 8.25 C121.43191406 8.84039062 122.11382813 9.43078125 122.81640625 10.0390625 C130.48250017 17.09006865 136.49625919 26.2722019 139.8125 36.125 C142.84911385 43.40645785 150.13050488 45.39681395 156.90771484 48.37988281 C160.6105248 50.12873183 163.65124304 52.61453759 166.75 55.25 C167.78125 56.03375 168.8125 56.8175 169.875 57.625 C176.00589716 63.22277566 179.81449102 69.53017591 182.75 77.25 C183.1625 78.3225 183.575 79.395 184 80.5 C185.11483414 86.07417072 184.90333291 91.58520068 184.75 97.25 C185.925625 97.7140625 185.925625 97.7140625 187.125 98.1875 C189.75 99.25 189.75 99.25 191.75 100.25 C191.75 100.91 191.75 101.57 191.75 102.25 C192.34554688 102.48203125 192.94109375 102.7140625 193.5546875 102.953125 C196.31193715 104.58196287 197.27778587 106.24041538 198.875 109 C199.37257813 109.84046875 199.87015625 110.6809375 200.3828125 111.546875 C202.87081991 116.46602107 204.02550293 121.01571113 204.4375 126.5 C204.52386719 127.53640625 204.61023438 128.5728125 204.69921875 129.640625 C204.74125212 132.6282278 204.49359874 135.15339221 204.0703125 138.0859375 C203.4652347 143.62284233 204.84665017 147.55326945 206.9375 152.625 C210.53703467 162.02786607 212.68812026 171.3692267 214.38037109 181.27734375 C215.14538701 185.36012356 215.71621145 187.3481153 218.75 190.25 C218.75 190.91 218.75 191.57 218.75 192.25 C219.74 192.58 220.73 192.91 221.75 193.25 C223.57470012 195.36205447 225.26748205 197.46001529 226.9375 199.6875 C227.40091797 200.28626953 227.86433594 200.88503906 228.34179688 201.50195312 C231.75 205.98431747 231.75 205.98431747 231.75 208.25 C232.41 208.25 233.07 208.25 233.75 208.25 C236.44829121 211.66119201 238.56542203 215.49540665 240.75 219.25 C241.36367432 220.3033252 241.36367432 220.3033252 241.98974609 221.37792969 C251.44529225 237.85162381 257.91570064 254.78380171 254.20703125 274.07421875 C252.3158014 280.22855234 249.00259888 286.41750127 244.75 291.25 C244.09 291.25 243.43 291.25 242.75 291.25 C242.75 291.91 242.75 292.57 242.75 293.25 C224.84380401 307.75767308 200.85018394 308.80072501 178.875 308.625 C177.94333008 308.62333832 177.01166016 308.62167664 176.05175781 308.6199646 C163.06800722 308.59291512 150.335682 308.05654027 137.48876953 306.05419922 C130.14856345 304.99351653 124.74587648 305.9056855 117.75 308.25 C106.85014971 311.155494 95.16421385 311.10739311 84.05859375 309.2734375 C80.75807581 309.2399297 77.89554281 310.31125743 74.75 311.25 C75.30017141 317.35158825 75.85156378 323.45306452 76.40405273 329.55444336 C76.59155711 331.62700469 76.77873678 333.69959542 76.96557617 335.7722168 C77.2352959 338.76358845 77.50621086 341.7548499 77.77734375 344.74609375 C77.85967758 345.66208847 77.94201141 346.57808319 78.02684021 347.52183533 C78.47771565 352.48231649 78.98067767 357.43010149 79.57917786 362.37510681 C79.75 364.25 79.75 364.25 79.609375 367.0703125 C79.4769007 369.86173532 79.64073207 371.6674856 80.75 374.25 C83.70733829 376.33862017 86.76954933 377.75043384 90.05078125 379.27734375 C103.02308408 385.68303882 112.7927913 399.03736008 117.75 412.25 C119.14681791 417.83727162 119.44521335 423.53469955 118.75 429.25 C116.75 432 116.75 432 113.75 433.25 C98.30267526 435.14703988 81.87004779 426.14865422 70.01953125 417.046875 C69.27058594 416.45390625 68.52164062 415.8609375 67.75 415.25 C66.99074219 414.71890625 66.23148437 414.1878125 65.44921875 413.640625 C64.88847656 413.18171875 64.32773437 412.7228125 63.75 412.25 C63.75 411.59 63.75 410.93 63.75 410.25 C63.09 410.25 62.43 410.25 61.75 410.25 C61.75 409.59 61.75 408.93 61.75 408.25 C61.09 408.25 60.43 408.25 59.75 408.25 C56.25223076 401.25446152 57.46584913 390.72153833 57.21484375 383.0703125 C57.17186661 381.8223288 57.12888947 380.57434509 57.08460999 379.2885437 C56.97198533 375.98542818 56.8625627 372.68222501 56.75421143 369.37896729 C56.64449721 366.08322463 56.52752323 362.78773474 56.41210938 359.4921875 C55.93195779 345.40575276 55.60990438 331.34465684 55.75 317.25 C54.45570068 317.58076538 54.45570068 317.58076538 53.13525391 317.91821289 C52.14187012 318.17207764 51.14848633 318.42594238 50.125 318.6875 C49.08085937 318.95433594 48.03671875 319.22117187 46.9609375 319.49609375 C43.90108876 320.21452539 40.8551949 320.76976716 37.75 321.25 C37.72421875 321.83007812 37.6984375 322.41015625 37.671875 323.0078125 C37.17841752 329.80406779 35.50469271 333.77783987 30.3125 338.4375 C20.72227903 343.31673523 9.30267565 344.02616672 -1.25 345.25 C-2.24257813 345.38664062 -3.23515625 345.52328125 -4.2578125 345.6640625 C-10.92180527 346.48044908 -16.72485668 345.7771612 -23.25 344.25 C-24.99881383 351.1178114 -25.61982585 357.55408388 -25.8125 364.625 C-25.85294434 365.69484131 -25.89338867 366.76468262 -25.93505859 367.86694336 C-26.15179469 373.78178285 -26.26714225 379.68669648 -26.28515625 385.60546875 C-26.30823853 387.41168701 -26.30823853 387.41168701 -26.33178711 389.25439453 C-26.35996108 391.57421048 -26.36078882 393.89456849 -26.33032227 396.21435547 C-26.44208037 403.08513988 -27.48334362 406.80178722 -32.44921875 411.65600586 C-33.04347656 412.18202393 -33.63773438 412.70804199 -34.25 413.25 C-35.01183594 413.9925 -35.77367187 414.735 -36.55859375 415.5 C-48.53928174 425.34834536 -65.29076759 433.86725603 -81.08984375 433.65625 C-83.25 433.25 -83.25 433.25 -86.3125 430.6875 C-89.95477988 424.22539054 -88.1275369 418.20984852 -86.27734375 411.36328125 C-80.94840054 395.21435449 -68.72699216 384.29093507 -54.25 376.25 C-51.30078125 375.4765625 -51.30078125 375.4765625 -49.25 375.25 C-49.18941406 374.27160156 -49.12882813 373.29320312 -49.06640625 372.28515625 C-48.61678488 365.25031117 -48.10950635 358.24883741 -47.25 351.25 C-47.95125 351.085 -48.6525 350.92 -49.375 350.75 C-56.71827842 346.9187243 -59.22002617 339.39800635 -61.5859375 331.88671875 C-62.25 329.25 -62.25 329.25 -62.25 326.25 C-63.45011719 326.51554687 -64.65023437 326.78109375 -65.88671875 327.0546875 C-85.03421685 331.17343366 -103.64238923 332.4354249 -123.1875 332.5625 C-124.02511871 332.57212769 -124.86273743 332.58175537 -125.72573853 332.5916748 C-139.37683015 332.72606786 -151.83884587 331.39748812 -164.6875 326.375 C-165.69623169 325.9886438 -165.69623169 325.9886438 -166.7253418 325.59448242 C-172.84716357 323.16651578 -177.8174014 320.17655387 -182.25 315.25 C-182.25 314.59 -182.25 313.93 -182.25 313.25 C-182.91 313.25 -183.57 313.25 -184.25 313.25 C-185.96964442 310.94915172 -187.5607461 308.65338718 -189.125 306.25 C-189.55941406 305.60160156 -189.99382812 304.95320313 -190.44140625 304.28515625 C-194.55566503 298.04581485 -198.11307162 291.7977135 -199.9375 284.5 C-200.16824219 283.59765625 -200.39898437 282.6953125 -200.63671875 281.765625 C-200.83910156 280.93546875 -201.04148438 280.1053125 -201.25 279.25 C-201.42418457 278.61707031 -201.59836914 277.98414063 -201.77783203 277.33203125 C-202.55072293 273.92395806 -202.43447649 270.47703371 -202.4375 267 C-202.44974609 266.27425781 -202.46199219 265.54851562 -202.47460938 264.80078125 C-202.50214348 254.50302714 -199.17351287 244.54862091 -193.5625 235.9375 C-190.91790913 231.92569425 -190.91790913 231.92569425 -190.25 227.25 C-191.16166405 225.49179075 -192.08638822 223.73618306 -193.1328125 222.0546875 C-202.06145955 207.63148841 -201.21720958 185.90232757 -197.625 169.875 C-195.50848292 161.11856491 -192.41436308 152.67207405 -189.25 144.25 C-188.11666584 140.84999753 -188.51620262 139.67604046 -189.25 136.25 C-190.0256132 124.86936786 -188.33036034 115.8947095 -182.25 106.25 C-181.59 106.25 -180.93 106.25 -180.25 106.25 C-180.15460938 105.64671875 -180.05921875 105.0434375 -179.9609375 104.421875 C-179.09262859 101.76923897 -178.1533353 101.05734311 -175.875 99.5 C-175.26914063 99.07203125 -174.66328125 98.6440625 -174.0390625 98.203125 C-172.25 97.25 -172.25 97.25 -169.25 97.25 C-169.58 96.26 -169.91 95.27 -170.25 94.25 C-171.16197506 81.48234911 -166.22692623 70.62752977 -158 61.125 C-149.3675893 51.95394956 -139.26251545 45.25417182 -127.25 41.25 C-125.90112618 38.47616561 -125.90112618 38.47616561 -124.6875 35.0625 C-116.9571652 15.63981369 -102.13968641 2.14296839 -83.20703125 -6.17578125 C-57.72984835 -16.73486202 -22.61928733 -17.55137452 0 0 Z M-100.18359375 23.80859375 C-105.33974616 29.90045624 -109.02162854 35.98357476 -111.375 43.625 C-112.87887807 48.44113845 -113.95458758 51.29690396 -118.25 54.25 C-121.0952899 55.48340423 -123.97425266 56.61300598 -126.859375 57.75 C-138.945597 63.09690005 -151.8598019 71.82353684 -157.4375 84.1796875 C-159.78331378 93.04415689 -159.97309536 104.30225144 -155.47265625 112.48046875 C-153.55495784 115.25592363 -151.54029604 117.76884595 -149.25 120.25 C-154.92853635 118.83036591 -158.78174216 115.85636039 -163.25 112.25 C-168.2744744 117.44773214 -169.8716889 123.71909644 -170.625 130.75 C-169.43567098 141.85040415 -164.7133044 150.0483062 -156.25 157.25 C-149.38366423 162.44397296 -140.5221379 162.48703582 -132.25 163.25 C-141.42930288 168.1471467 -149.88590192 169.86132243 -160.1875 167.1875 C-165.32139315 165.51145881 -169.56870969 162.71599889 -174 159.67578125 C-176.08761045 158.07157954 -176.08761045 158.07157954 -178.25 158.25 C-179.56134936 162.46470588 -180.84798264 166.68432739 -182.0703125 170.92578125 C-182.27672363 171.64161377 -182.48313477 172.35744629 -182.69580078 173.0949707 C-183.65464754 176.82349066 -184.16091076 180.40643584 -184.25 184.25 C-184.28867188 185.39984375 -184.32734375 186.5496875 -184.3671875 187.734375 C-184.64873573 203.31337696 -182.48272108 215.03009452 -171.4375 226.625 C-164.333532 233.42867963 -164.333532 233.42867963 -155.25 236.25 C-155.28480469 235.10402344 -155.31960938 233.95804688 -155.35546875 232.77734375 C-155.38362703 231.24741061 -155.41092499 229.71746146 -155.4375 228.1875 C-155.46263672 227.43533203 -155.48777344 226.68316406 -155.51367188 225.90820312 C-155.58282151 220.58368144 -154.65669334 217.00653566 -152.25 212.25 C-151.7653125 213.24257813 -151.280625 214.23515625 -150.78125 215.2578125 C-146.255496 224.45501881 -141.44205728 233.41245569 -136.25 242.25 C-135.59 242.25 -134.93 242.25 -134.25 242.25 C-133.99734375 242.8275 -133.7446875 243.405 -133.484375 244 C-130.18008466 250.02301023 -124.15539327 254.87548956 -118.25 258.25 C-117.59 258.25 -116.93 258.25 -116.25 258.25 C-116.25 258.91 -116.25 259.57 -116.25 260.25 C-120.87 260.25 -125.49 260.25 -130.25 260.25 C-127.85450404 272.2274798 -120.65457318 281.71571306 -110.6875 288.6875 C-104.1791979 292.687394 -97.91433111 294.78194925 -90.25 295.25 C-89.23679687 295.311875 -89.23679687 295.311875 -88.203125 295.375 C-81.44301855 295.57237537 -74.89272299 294.3998995 -68.25 293.25 C-68.23582031 292.4765625 -68.22164063 291.703125 -68.20703125 290.90625 C-67.80560846 282.14004418 -66.08636699 276.81234078 -59.625 270.8125 C-54.7532273 267.60738638 -49.88945132 267.87403658 -44.25 268.25 C-40.625 269.25 -40.625 269.25 -38.25 270.25 C-38.69028931 266.65430398 -39.22274143 263.33658605 -40.3125 259.875 C-41.71823638 254.43948599 -42.39442324 249.59086572 -39.875 244.4375 C-34.85360559 240.25300466 -29.11151232 237.78014633 -22.5 238.25 C-17.44607847 239.17536591 -13.92781158 240.98108949 -10.80859375 245.19921875 C-7.53668636 250.54053765 -6.54633401 255.02698575 -6.25 261.25 C2.09703335 262.06581087 6.93264268 259.56734955 14 255.3125 C15.52125488 254.4313855 15.52125488 254.4313855 17.07324219 253.5324707 C22.62255458 250.27702208 27.86763907 246.80725195 33 242.9375 C37.83892914 239.46470653 41.32868865 238.12516729 47.3046875 238.69140625 C52.37839692 239.85041655 55.55981303 241.59909549 58.6875 245.9375 C60.41723678 251.3302088 60.47831878 255.9740038 58.75 261.375 C53.25888921 269.26847176 44.71342142 274.14013792 36.75 279.25 C37.07613281 279.96027344 37.40226563 280.67054688 37.73828125 281.40234375 C38.80973109 284.41812341 38.98621947 286.62801857 38.9375 289.8125 C38.92783203 291.20662109 38.92783203 291.20662109 38.91796875 292.62890625 C38.75 295.25 38.75 295.25 38.11328125 297.27734375 C37.60386275 300.04354097 38.57359562 301.75879072 39.75 304.25 C47.12846293 304.21615384 53.86046659 302.54237943 60.875 300.4375 C61.7093457 300.18919434 62.54369141 299.94088867 63.40332031 299.68505859 C68.39819039 298.13977681 73.08197242 296.29207732 77.78051758 293.99462891 C80.97066972 292.78848486 83.49790988 293.48132415 86.75 294.25 C102.00615513 296.53842327 115.86398424 295.39719002 128.75 286.25 C129.801875 285.528125 130.85375 284.80625 131.9375 284.0625 C138.41054722 277.58945278 142.31186092 269.99861669 144.75 261.25 C140.46 260.92 136.17 260.59 131.75 260.25 C134.6655722 257.14632637 137.62078975 254.57530575 141.0625 252.0625 C153.86870178 242.16101618 160.47589582 226.75886591 166.75 212.25 C169.33225056 214.83225056 169.67010035 216.76747483 169.86352539 220.35644531 C169.85828857 221.08959961 169.85305176 221.82275391 169.84765625 222.578125 C169.84443359 223.37734375 169.84121094 224.1765625 169.83789062 225 C169.82951172 225.825 169.82113281 226.65 169.8125 227.5 C169.80798828 228.34046875 169.80347656 229.1809375 169.79882812 230.046875 C169.78707961 232.11461401 169.76914522 234.18231624 169.75 236.25 C180.61964618 233.00014933 188.32322251 225.87544303 194.51171875 216.61328125 C202.2893659 202.16389948 200.77046577 181.99394032 196.375 166.625 C194.88031731 161.49612924 194.88031731 161.49612924 191.75 157.25 C191.04037109 157.83007812 191.04037109 157.83007812 190.31640625 158.421875 C180.94486011 165.80219594 171.72537957 169.25371679 159.75 168.25 C154.96038537 167.20819117 150.84179574 165.97786383 146.75 163.25 C147.77738281 163.17523438 148.80476563 163.10046875 149.86328125 163.0234375 C160.97707384 162.04182001 169.84145794 159.78006582 177.75 151.3125 C183.84716295 143.66916654 185.7961508 134.90248472 184.75 125.25 C183.34047496 120.52040888 181.48628074 116.35442111 178.75 112.25 C176.27432105 113.35030176 174.46371449 114.49108253 172.375 116.25 C169.56584872 118.39030574 167.13015276 119.30670155 163.75 120.25 C164.23210937 119.73050781 164.71421875 119.21101563 165.2109375 118.67578125 C172.6711895 110.43905404 174.15984556 103.32249016 174.0234375 92.2734375 C173.19061739 83.06482654 167.1753182 75.15730436 160.4140625 69.1875 C153.87137035 64.15768261 146.7653458 60.54808879 139.3515625 57.01171875 C130.4539977 52.69799385 130.4539977 52.69799385 128.8125 48.3125 C128.32716797 47.12140625 128.32716797 47.12140625 127.83203125 45.90625 C127.47496094 45.0296875 127.11789062 44.153125 126.75 43.25 C119.07213405 26.09584904 108.17219611 14.63071787 90.75 7.25 C87.45376234 6.02568316 84.16705195 5.07292639 80.75 4.25 C79.99332031 4.04503906 79.23664063 3.84007812 78.45703125 3.62890625 C61.33707782 -0.31766489 41.96938204 0.74950973 26.75 10 C21.35407953 14.0004238 16.50218755 19.08607585 13.2421875 24.97265625 C11.75 27.25 11.75 27.25 8.25 28.125 C4.75 28.25 4.75 28.25 1.75 27.25 C1.04289322 25.60008418 0.38437344 23.9292238 -0.25 22.25 C-4.67334342 13.59563244 -13.72555399 8.40699546 -22.5703125 5.0390625 C-29.88043136 2.88652021 -36.68516639 1.88839699 -44.3125 1.9375 C-45.22499512 1.94241455 -46.13749023 1.9473291 -47.07763672 1.95239258 C-67.37061116 2.29823509 -85.97835334 8.79017321 -100.18359375 23.80859375 Z M210.75 214.25 C210.31429687 215.1678125 209.87859375 216.085625 209.4296875 217.03125 C204.12619725 228.03891864 198.99783616 236.18482515 188.75 243.25 C187.98816406 243.7759375 187.22632813 244.301875 186.44140625 244.84375 C180.53501578 248.64556455 174.40616971 250.94929156 167.75390625 253.07421875 C164.17888595 254.47262707 164.17888595 254.47262707 161.75 257.25 C160.73130683 260.02523818 160.73130683 260.02523818 159.9375 263.1875 C158.24295065 269.04318213 155.96841104 274.21631285 153.1171875 279.59375 C151.82607339 282.10220026 150.75248045 284.61490852 149.75 287.25 C172.65881299 291.37427949 205.4597575 293.26755148 225.8828125 280.58984375 C230.86113804 277.01753065 234.42035594 273.90485633 235.55859375 267.5546875 C237.00128998 250.18344721 228.5759825 235.805937 219.00292969 222.08105469 C218.18273596 220.88240835 217.39015805 219.66427644 216.62988281 218.42675781 C215.5230848 216.57832938 215.5230848 216.57832938 213.75 214.25 C212.76 214.25 211.77 214.25 210.75 214.25 Z M-175.25 243.25 C-181.39697159 251.01252181 -183.88600735 260.17315632 -183.00390625 269.98828125 C-181.05279181 282.19569637 -175.66769841 294.88728966 -166.25 303.25 C-153.68738121 311.6250792 -139.98203477 312.8274751 -125.25 313.25 C-124.074375 313.29125 -122.89875 313.3325 -121.6875 313.375 C-112.10572199 313.55244033 -102.73705337 312.45470519 -93.25 311.25 C-93.58 310.59 -93.91 309.93 -94.25 309.25 C-96.68715729 308.61747824 -99.10012817 308.07465316 -101.5625 307.5625 C-114.9013188 304.49725135 -126.68530214 297.05703343 -134.67578125 285.8046875 C-139.94481575 277.25394666 -144.63194394 268.35078787 -146.38671875 258.38671875 C-147.63096891 255.30705884 -149.29555014 254.6738807 -152.25 253.25 C-154.33957725 252.42059034 -156.44513515 251.63065835 -158.5625 250.875 C-163.97942036 248.85440272 -168.44204472 246.42506481 -173.25 243.25 C-173.91 243.25 -174.57 243.25 -175.25 243.25 Z M-93.25 309.25 C-92.59 309.91 -91.93 310.57 -91.25 311.25 C-91.25 310.59 -91.25 309.93 -91.25 309.25 C-91.91 309.25 -92.57 309.25 -93.25 309.25 Z M-89.25 309.25 C-89.25 309.58 -89.25 309.91 -89.25 310.25 C-87.6 310.25 -85.95 310.25 -84.25 310.25 C-84.25 309.92 -84.25 309.59 -84.25 309.25 C-85.9 309.25 -87.55 309.25 -89.25 309.25 Z " fill="#010101" transform="translate(420.25,306.75)"/>
<path d="M0 0 C1.3921875 0.9590625 1.3921875 0.9590625 2.8125 1.9375 C10.34096316 9.03576527 11.96431064 16.11176577 12.33422852 26.19287109 C12.4831353 34.39076943 12.16097787 42.09098117 6.609375 48.640625 C1.45431536 53.36157435 -4.10154982 54.36788141 -10.83203125 54.1875 C-18.13487575 53.55590264 -23.60024098 49.7845384 -28.3125 44.375 C-32.02414426 39.91323341 -32.2424517 36.39648735 -32.5 30.6875 C-32.81180786 23.79216991 -32.81180786 23.79216991 -34 17 C-34.52787109 18.35931641 -34.52787109 18.35931641 -35.06640625 19.74609375 C-41.28570823 35.09136888 -50.10102124 45.69788838 -65.3984375 52.7734375 C-68.14468473 53.99035945 -68.14468473 53.99035945 -71 56 C-66.41659388 57.30461801 -61.98424041 57.18404939 -57.25 57.1875 C-56.38117188 57.19974609 -55.51234375 57.21199219 -54.6171875 57.22460938 C-50.50314761 57.23387523 -46.77711201 57.07545785 -42.796875 55.98828125 C-36.04400783 54.23059052 -30.93352875 54.91967248 -24.5625 57.5625 C-23.90507812 57.83280029 -23.24765625 58.10310059 -22.5703125 58.3815918 C-17.13679298 60.73051304 -12.96669733 63.55912276 -9 68 C-8.38769531 68.67933594 -7.77539062 69.35867188 -7.14453125 70.05859375 C4.63267405 84.14603975 9.73618787 105.0460258 9.37109375 123.171875 C9 126 9 126 7 129.125 C3.36722907 131.39548183 0.14700748 132.93342616 -4 134 C-4.89589844 134.2371875 -5.79179687 134.474375 -6.71484375 134.71875 C-9.71652002 135.2787335 -11.98735602 135.53377176 -15 135 C-17.24202599 132.98837985 -18.67988335 130.88674462 -20.31640625 128.36328125 C-24.27406688 122.80786435 -31.19571975 119.88471634 -37.6875 118.375 C-48.43662574 117.15811784 -58.4795366 118.50213781 -67.4375 125.25 C-75.5070153 133.90996764 -78.47700334 141.87444612 -78.24609375 153.71875 C-77.53966705 163.13777271 -74.1289179 170.40273822 -67.078125 176.72265625 C-60.31760037 182.05508556 -54.25642468 184.56146274 -45.6875 184.4375 C-44.93984375 184.42847656 -44.1921875 184.41945313 -43.421875 184.41015625 C-33.75210804 184.10849974 -27.02865293 180.94196374 -19.98046875 174.29296875 C-14.31701105 167.73586881 -11.98337705 160.31258546 -11.4375 151.8125 C-11.35371094 150.54019531 -11.26992188 149.26789063 -11.18359375 147.95703125 C-11.12300781 146.98121094 -11.06242188 146.00539063 -11 145 C-9.10787298 144.46585888 -7.21108364 143.94821671 -5.3125 143.4375 C-4.25675781 143.14746094 -3.20101562 142.85742188 -2.11328125 142.55859375 C1.07995457 141.98565432 2.9445549 141.96416768 6 143 C8.1684472 144.56451564 8.87379386 145.44574472 9.46875 148.05859375 C9.60303408 158.28096929 5.72440234 167.11479884 -1.28515625 174.5078125 C-3.36639431 176.31882147 -5.31555735 177.34922602 -8 178 C-8 178.66 -8 179.32 -8 180 C-7.10861328 180.38478516 -7.10861328 180.38478516 -6.19921875 180.77734375 C-1.76501857 183.24253852 1.15213559 187.52423591 2.78125 192.28125 C3.48125873 196.21206826 3.35330806 199.20431631 1.3125 202.6875 C-5.66031506 210.94377277 -17.75421068 213.641192 -28 215 C-33.32205365 215.44814575 -38.64758389 215.47501888 -43.98535156 215.44604492 C-46.36611545 215.43753177 -48.74447068 215.46642741 -51.125 215.49804688 C-77.23923922 215.61913351 -100.40734537 205.30903787 -119 187 C-127.08503112 178.92988591 -133.18964506 169.34596339 -138 159 C-138 158.34 -138 157.68 -138 157 C-137.16855469 156.73445312 -136.33710938 156.46890625 -135.48046875 156.1953125 C-133.85044922 155.66550781 -133.85044922 155.66550781 -132.1875 155.125 C-130.56908203 154.60292969 -130.56908203 154.60292969 -128.91796875 154.0703125 C-125.86684198 153.08040347 -125.86684198 153.08040347 -123 151 C-124.57587891 150.87044922 -124.57587891 150.87044922 -126.18359375 150.73828125 C-138.02429484 149.61798613 -145.86848019 147.04061051 -154.2734375 138.18359375 C-159.62794015 131.41172276 -161.55842587 123.51599451 -161 115 C-159.7207095 108.56325488 -158.14889676 104.17478116 -153 100 C-152.56429688 100.40992188 -152.12859375 100.81984375 -151.6796875 101.2421875 C-147.95637366 104.61090002 -144.99214035 106.78240479 -140 108 C-140.39832031 107.5875 -140.79664063 107.175 -141.20703125 106.75 C-141.73683594 106.1725 -142.26664062 105.595 -142.8125 105 C-143.33457031 104.443125 -143.85664063 103.88625 -144.39453125 103.3125 C-150.22866378 94.90907796 -150.14698269 84.83061685 -149 75 C-146.30821417 64.42318497 -136.62875797 56.09714215 -127.6953125 50.4296875 C-123.48814827 48.19806126 -119.10390558 46.36064902 -114.67138672 44.62231445 C-110.18229783 42.79543616 -107.11878518 40.85564102 -104 37 C-102.81772278 34.28653035 -102.81772278 34.28653035 -102.125 31.375 C-97.73687299 17.16582682 -87.64470129 6.10478258 -74.98046875 -1.46875 C-52.41852319 -13.06020827 -21.34237731 -15.20903393 0 0 Z " fill="#FDA59B" transform="translate(411,319)"/>
<path d="M0 0 C2.18503894 1.67434536 4.26505712 3.42256339 6.33984375 5.23046875 C7.37109375 5.99359375 8.40234375 6.75671875 9.46484375 7.54296875 C16.8143292 14.41313993 21.62148875 23.50227975 25.359375 32.75390625 C25.68292969 33.55054688 26.00648438 34.3471875 26.33984375 35.16796875 C26.74203125 36.23337891 26.74203125 36.23337891 27.15234375 37.3203125 C29.6696791 41.3695789 34.73019663 42.93744188 38.91040039 44.93139648 C52.53130673 51.47234509 64.75357141 59.20993107 70.6875 73.77734375 C72.99534533 82.45594776 71.37990373 91.27603736 68.02734375 99.41796875 C66.15886386 102.5321019 64.00612299 104.78037432 61.33984375 107.23046875 C66.31621737 106.01671909 69.18291147 103.90073382 72.82421875 100.47265625 C74.33984375 99.23046875 74.33984375 99.23046875 76.33984375 99.23046875 C77.15821817 100.64375004 77.96930594 102.06125221 78.77734375 103.48046875 C79.22980469 104.269375 79.68226563 105.05828125 80.1484375 105.87109375 C83.52748665 112.56271894 83.08067252 120.24336851 81.21484375 127.35546875 C78.19525362 136.2744433 72.5668559 141.85002967 64.33984375 146.23046875 C57.87849575 149.17896267 51.37695719 149.84901774 44.33984375 150.23046875 C49.26197505 152.86412862 53.91887673 154.87522699 59.33984375 156.23046875 C57.22122237 171.11514203 42.24332659 186.74385888 30.55712891 195.578125 C26.60786628 198.34567684 22.51528659 200.82096536 18.33984375 203.23046875 C17.28216797 203.85695313 17.28216797 203.85695313 16.203125 204.49609375 C9.74792293 208.02475084 2.40285267 210.25299614 -4.66015625 212.23046875 C-5.67565552 212.51954102 -5.67565552 212.51954102 -6.71166992 212.81445312 C-14.62286823 214.73149245 -22.63969382 214.53267855 -30.72827148 214.49121094 C-33.22078697 214.4804768 -35.71258431 214.49116068 -38.20507812 214.50390625 C-39.81640781 214.50258469 -41.42773706 214.50002237 -43.0390625 214.49609375 C-44.13632408 214.50216644 -44.13632408 214.50216644 -45.25575256 214.50836182 C-52.48227434 214.44399674 -59.32656822 212.99594354 -66.03515625 210.29296875 C-66.84726562 209.97457031 -67.659375 209.65617188 -68.49609375 209.328125 C-70.68745061 208.2166245 -72.04331628 207.06114885 -73.66015625 205.23046875 C-67.5763245 202.18855287 -56.43903766 203.77529498 -49.97265625 205.453125 C-46.94453777 206.47102293 -43.99992936 207.66619044 -41.03515625 208.85546875 C-36.26003458 210.76439781 -32.76359373 211.82389171 -27.66015625 211.23046875 C-27.66015625 208.92046875 -27.66015625 206.61046875 -27.66015625 204.23046875 C-44.43674256 194.79847092 -61.81574346 192.84833079 -80.66015625 195.23046875 C-80.66015625 188.64094019 -77.89929001 185.76814312 -73.375 181.1484375 C-71.43798007 179.41077536 -71.43798007 179.41077536 -71.66015625 177.23046875 C-73.28402006 175.66613632 -73.28402006 175.66613632 -75.34765625 174.04296875 C-82.26259984 168.13160989 -86.12734132 162.53407919 -86.9140625 153.2265625 C-87.22122726 144.9925652 -87.22122726 144.9925652 -85.19921875 142.24609375 C-81.76830746 140.87372924 -79.74889199 141.67482155 -76.25048828 142.60839844 C-71.60286807 143.72452815 -66.85219119 143.97158175 -62.09765625 144.35546875 C-60.58461914 144.48501953 -60.58461914 144.48501953 -59.04101562 144.6171875 C-56.5811326 144.82703534 -54.12092723 145.03135342 -51.66015625 145.23046875 C-51.57378906 146.19726562 -51.48742187 147.1640625 -51.3984375 148.16015625 C-50.29361785 158.39747598 -48.23592436 167.65470064 -40.66015625 175.23046875 C-30.65553903 182.74806248 -21.9957702 184.44356471 -9.66015625 183.23046875 C-5.97945136 182.36962121 -2.9311778 181.10667734 0.33984375 179.23046875 C0.98179687 178.87984375 1.62375 178.52921875 2.28515625 178.16796875 C9.62992001 173.58941472 13.73989307 165.97328477 15.87109375 157.765625 C17.46324456 149.15474273 16.53700201 140.61565272 12.015625 133 C6.59835187 125.42150504 -0.41566399 119.89566669 -9.47265625 117.48046875 C-21.07696579 116.57032683 -30.26630909 117.71539102 -39.66015625 125.23046875 C-41.52221191 127.2811378 -43.30726832 129.36792486 -45.046875 131.5234375 C-47.66752507 134.29637717 -49.81331305 134.23704135 -53.57421875 134.3984375 C-75.7798118 134.61352095 -75.7798118 134.61352095 -85.32421875 128.09375 C-87.38468096 125.21994744 -87.19135447 122.26504437 -87.16015625 118.85546875 C-87.15048828 117.7418396 -87.15048828 117.7418396 -87.140625 116.60571289 C-86.55901272 98.08404016 -80.40626412 77.89954965 -67.296875 64.35546875 C-59.10455471 57.75306543 -49.28154666 53.40755021 -38.66015625 54.23046875 C-37.36244811 54.53944688 -36.0707269 54.874348 -34.78515625 55.23046875 C-30.03538291 56.40130449 -25.3987743 56.42190451 -20.53515625 56.41796875 C-19.38877686 56.41893555 -19.38877686 56.41893555 -18.21923828 56.41992188 C-13.60765565 56.3759735 -9.20990712 55.98473779 -4.66015625 55.23046875 C-5.47097656 54.96234375 -6.28179688 54.69421875 -7.1171875 54.41796875 C-20.62224333 49.63853106 -32.48883882 41.66948394 -39.515625 28.84375 C-41.61095153 24.39926878 -43.63458966 20.05529339 -44.66015625 15.23046875 C-45.49803757 20.16254287 -45.63858969 24.67877482 -45.41015625 29.66796875 C-45.35170922 35.55942921 -45.9063265 39.23615936 -49.37109375 44.0078125 C-50.66015625 45.23046875 -50.66015625 45.23046875 -52.66015625 45.23046875 C-52.66015625 45.89046875 -52.66015625 46.55046875 -52.66015625 47.23046875 C-59.18329174 52.42631613 -65.38103252 53.88236826 -73.66015625 53.23046875 C-79.18456407 51.82228636 -83.30877434 49.96795978 -86.84765625 45.41796875 C-90.10080846 39.69690796 -90.98326158 34.69261937 -90.91015625 28.16796875 C-90.91789062 27.47380859 -90.925625 26.77964844 -90.93359375 26.06445312 C-90.91806888 21.97753201 -90.37638861 18.92395741 -88.66015625 15.23046875 C-88.31984375 13.59078125 -88.31984375 13.59078125 -87.97265625 11.91796875 C-85.07161194 3.7674157 -78.23671419 -1.92713401 -70.66015625 -5.76953125 C-49.08561771 -15.27738021 -19.70947382 -13.11070725 0 0 Z " fill="#FCA59B" transform="translate(522.66015625,319.76953125)"/>
<path d="M0 0 C0.5547948 20.76070599 0.14672827 41.9376005 -15 58 C-15.99 58.495 -15.99 58.495 -17 59 C-18.98 52.07 -18.98 52.07 -21 45 C-23.11986295 47.82648394 -24.44845627 49.67921288 -25.796875 52.7578125 C-26.11213135 53.46107666 -26.4273877 54.16434082 -26.75219727 54.88891602 C-27.08147217 55.62682373 -27.41074707 56.36473145 -27.75 57.125 C-30.8862826 63.95392075 -34.29130719 70.10333423 -39 76 C-39.54140625 76.70382812 -40.0828125 77.40765625 -40.640625 78.1328125 C-44.51284412 82.89166123 -48.82407416 86.21805421 -53.9609375 89.5546875 C-56.11775581 90.84293158 -56.11775581 90.84293158 -57 93 C-52.71 93.33 -48.42 93.66 -44 94 C-47.34708044 106.01011217 -53.35498331 115.25921847 -64 122 C-76.36986594 128.35568265 -89.02869849 129.41434199 -102.4921875 126.33984375 C-107.52109125 125.65835679 -111.77602369 127.57185625 -116.4375 129.3125 C-127.14924275 133.17813938 -137.53738988 136.53213836 -149 137 C-151.125 130.25 -151.125 130.25 -150 128 C-149.87759865 126.23229673 -149.82448847 124.45939538 -149.8125 122.6875 C-149.79123047 121.27017578 -149.79123047 121.27017578 -149.76953125 119.82421875 C-150.01175665 116.85593118 -150.75973393 114.69132835 -152 112 C-151.5059668 111.65743164 -151.01193359 111.31486328 -150.50292969 110.96191406 C-148.24899829 109.39547934 -145.99948589 107.82281127 -143.75 106.25 C-142.97269531 105.71117187 -142.19539063 105.17234375 -141.39453125 104.6171875 C-133.39614796 99.24663884 -133.39614796 99.24663884 -129 91 C-128.66126435 86.23164426 -128.80029221 81.6488677 -130 77 C-126.80475168 75.40237584 -123.26667438 75.46288573 -119.75 75.125 C-86.37376308 71.61467773 -57.31906604 57.99355532 -35.09375 32.66796875 C-30.6589141 27.01686256 -26.75685278 20.80287698 -23.7421875 14.27734375 C-21.04854233 8.4850648 -21.04854233 8.4850648 -17.75390625 6.9609375 C-16.04015814 6.48620058 -14.31215375 6.06027622 -12.57421875 5.68359375 C-9.09601774 4.75994401 -6.52460681 3.0242658 -3.59375 0.98828125 C-2 0 -2 0 0 0 Z " fill="#FCA59B" transform="translate(609,474)"/>
<path d="M0 0 C2.79538178 2.14422226 4.42815213 4.85630426 6 8 C6.41216074 14.07937099 5.53092277 17.49191281 3 23 C22.6065033 21.59260249 42.18121217 15.04893292 57.625 2.4375 C60.32642113 0.2630377 61.08553148 -0.01425525 64.75 -0.625 C68 0 68 0 70.4375 1.625 C72 4 72 4 72.6875 6.8125 C71.06504462 14.33479313 62.39224958 19.125101 56.375 23.25 C55.63765625 23.765625 54.9003125 24.28125 54.140625 24.8125 C50.49981383 27.34410347 46.84359072 29.7819595 43 32 C43.84884766 32.50660156 43.84884766 32.50660156 44.71484375 33.0234375 C45.81505859 33.69246094 45.81505859 33.69246094 46.9375 34.375 C47.66839844 34.81585937 48.39929688 35.25671875 49.15234375 35.7109375 C51 37 51 37 52 39 C52.46601942 46.22330097 52.46601942 46.22330097 50.5 49.5 C50.005 49.995 49.51 50.49 49 51 C49.495 51.474375 49.99 51.94875 50.5 52.4375 C52.72130097 56.23222249 52.83011036 59.70862588 52 64 C50.56508357 66.44633323 49.05696731 67.99445687 47 70 C47.66 70.66 48.32 71.32 49 72 C49.43977704 75.88469723 49.38641083 78.26077927 47.5625 81.75 C41.19663124 87.3395433 33.42236675 87.33226085 25.28515625 87.75 C22.61114828 87.95349169 20.42004144 88.2973936 17.875 89.0625 C8.83662622 91.24920333 0.63626669 90.20993983 -8 87 C-8.32613281 87.56589844 -8.65226562 88.13179687 -8.98828125 88.71484375 C-9.42527344 89.44832031 -9.86226563 90.18179688 -10.3125 90.9375 C-10.95638672 92.03384766 -10.95638672 92.03384766 -11.61328125 93.15234375 C-13.71862903 95.95749727 -15.93355786 95.989971 -19.3125 96.5 C-23.9403019 95.87250144 -24.78302621 94.55483338 -27.59741211 91.06884766 C-29.85992744 87.73158831 -31.01321365 84.28884194 -32.125 80.4375 C-32.36943848 79.62466553 -32.61387695 78.81183105 -32.86572266 77.97436523 C-42.86370841 43.3424717 -42.86370841 43.3424717 -37.94140625 33.98828125 C-35.40361055 30.75767486 -33.28651961 29.17543449 -29.25 28.625 C-24.7246142 29.1471599 -23.2328897 30.84229378 -20 34 C-19.67 34.66 -19.34 35.32 -19 36 C-18.59007812 35.4946875 -18.18015625 34.989375 -17.7578125 34.46875 C-17.21898437 33.8190625 -16.68015625 33.169375 -16.125 32.5 C-15.32449219 31.52546875 -15.32449219 31.52546875 -14.5078125 30.53125 C-14.01023437 30.0259375 -13.51265625 29.520625 -13 29 C-12.34 29 -11.68 29 -11 29 C-11.14086602 26.39547729 -11.28748464 23.79149803 -11.4375 21.1875 C-11.47681641 20.44951172 -11.51613281 19.71152344 -11.55664062 18.95117188 C-11.74381035 15.76928658 -11.98720793 13.03837622 -13 10 C-13.12781786 7.32605036 -13.04391871 4.67904143 -13 2 C-8.7259017 -0.40357455 -4.82288454 -1.01443917 0 0 Z " fill="#FCFCFC" transform="translate(400,554)"/>
<path d="M0 0 C0.84369141 0.43143311 1.68738281 0.86286621 2.55664062 1.30737305 C4.01360352 2.05241089 4.01360352 2.05241089 5.5 2.8125 C7.03140625 3.59560547 7.03140625 3.59560547 8.59375 4.39453125 C11.71987551 5.97107512 11.71987551 5.97107512 14.03979492 6.61157227 C17.93352726 7.782548 20.24363492 8.72564445 22.36328125 12.30078125 C23.03370168 13.62777321 23.6825918 14.9658052 24.3125 16.3125 C28.63710168 24.72677488 33.87230207 31.81645258 40 39 C40.56976563 39.67289063 41.13953125 40.34578125 41.7265625 41.0390625 C64.14593379 65.29797194 98.05281672 74.50774087 129.9140625 75.88671875 C130.93242187 75.92410156 131.95078125 75.96148438 133 76 C132.76023437 76.86044922 132.76023437 76.86044922 132.515625 77.73828125 C131.02884568 84.25983598 132.02802845 89.80401054 134.33203125 95.98046875 C135.12790871 98.38671815 135.24360606 100.4827374 135 103 C134.21625 102.67 133.4325 102.34 132.625 102 C126.81504446 100.39725364 121.42750326 100.17556493 115.6875 102.125 C111.31390782 105.17634338 108.03523407 109.01810095 106 114 C105.71519194 116.0742625 105.51125776 118.16071439 105.375 120.25 C105.30023438 121.32765625 105.22546875 122.4053125 105.1484375 123.515625 C105.07496094 124.74539063 105.07496094 124.74539063 105 126 C88.61784791 128.8358594 74.55837715 129.26803791 60 120 C52.99502345 114.47767186 48.82562784 107.96483174 45 100 C44.59652344 99.29488281 44.19304687 98.58976563 43.77734375 97.86328125 C43 96 43 96 44 93 C48.29 93 52.58 93 57 93 C57 92.34 57 91.68 57 91 C55.92105469 90.64228516 55.92105469 90.64228516 54.8203125 90.27734375 C51.57027657 88.80537457 49.48153578 86.98968699 46.875 84.5625 C46.02679688 83.78003906 45.17859375 82.99757813 44.3046875 82.19140625 C43.54414063 81.46824219 42.78359375 80.74507812 42 80 C41.40445313 79.45214844 40.80890625 78.90429688 40.1953125 78.33984375 C39 77 39 77 39 75 C38.34 75 37.68 75 37 75 C31.3527718 65.13976029 25.9671838 55.22185735 21 45 C18.47331375 50.52128214 18.47331375 50.52128214 17.3125 56.4375 C17.209375 57.613125 17.10625 58.78875 17 60 C6.39777614 50.33326648 0.53859497 37.04036577 -0.15820312 22.75708008 C-0.19576553 19.29417235 -0.17518427 15.8377144 -0.125 12.375 C-0.11597656 11.18003906 -0.10695312 9.98507812 -0.09765625 8.75390625 C-0.07431077 5.83572166 -0.04156656 2.91797224 0 0 Z " fill="#FCA49B" transform="translate(247,474)"/>
<path d="M0 0 C7.50345414 5.08342118 12.60468996 12.10679897 14.78515625 20.98046875 C16.20612706 30.21677902 14.97274095 38.67349431 10.23046875 46.78125 C9.54984375 47.668125 8.86921875 48.555 8.16796875 49.46875 C7.63171875 50.29375 7.09546875 51.11875 6.54296875 51.96875 C0.12039834 58.72935043 -8.60981076 62.6357819 -17.89697266 62.89990234 C-26.01215543 62.92347718 -32.008143 62.30984808 -38.83203125 57.46875 C-39.47398437 57.0459375 -40.1159375 56.623125 -40.77734375 56.1875 C-47.80077935 50.9579289 -52.26101534 41.95223589 -53.83203125 33.46875 C-54.70448573 23.05619546 -52.00191662 14.83631577 -45.83203125 6.46875 C-33.36835539 -7.05073311 -15.75522359 -9.328394 0 0 Z " fill="#040303" transform="translate(524.83203125,441.53125)"/>
<path d="M0 0 C7.00735146 4.90514602 11.7907579 11.70014091 14 20 C15.09837954 32.20989346 13.88871588 41.65349024 5.875 51.3125 C-0.53231762 58.05927815 -8.36369941 62.01509957 -17.69970703 62.39428711 C-28.5873192 62.60453229 -36.65306492 60.21840935 -44.9375 52.75 C-52.52610484 44.40067927 -54.33394511 35.15021992 -54.2109375 24.21484375 C-53.65758914 15.78140489 -49.18392518 8.13804881 -43.21875 2.23828125 C-30.11390965 -8.42282863 -14.12228946 -8.4145308 0 0 Z " fill="#040303" transform="translate(386,442)"/>
<path d="M0 0 C0.99 0.763125 1.98 1.52625 3 2.3125 C3.72316406 2.86808594 4.44632813 3.42367187 5.19140625 3.99609375 C12.79216036 10.21944596 16.81139648 16.60675839 18 26.4375 C18.33949728 34.47226903 16.02191127 39.55430696 10.98828125 45.671875 C3.45803269 51.88543963 -4.83922556 52.2700169 -14.24414062 53.08984375 C-22.25012481 53.90606114 -26.67480571 55.7337779 -33.0625 60.6875 C-36 62.3125 -36 62.3125 -39.1875 61.75 C-43.0640311 59.76866188 -44.4717253 58.73223826 -46 54.625 C-46 49.76056915 -44.11369768 46.9526683 -41 43.3125 C-33.71221349 36.2078237 -21.47172064 35.65525079 -11.8125 34.8125 C-7.97115625 34.30871721 -5.94001208 33.8070557 -3 31.3125 C-1.30086786 28.45486868 -0.99179663 26.69805859 -1.0625 23.375 C-2.45972049 18.81074641 -5.05231447 15.69472844 -8.9375 12.9375 C-15.18960924 11.04292144 -19.10829617 13.15915203 -24.6015625 16.0625 C-28.03822998 17.85359706 -31.19429324 19.41871804 -35.125 19.1875 C-37.7688551 17.95370096 -39.19687835 16.61303452 -41 14.3125 C-42.17468576 10.71013034 -42.17880159 8.86007987 -41 5.25 C-37.8075748 0.56112549 -34.06195109 -1.82148054 -28.875 -4 C-18.46187941 -5.84748914 -9.24791237 -5.20195071 0 0 Z " fill="#000000" transform="translate(644,233.6875)"/>
<path d="M0 0 C3.20512335 2.13204241 6.10107442 4.47396526 9 7 C10.03125 7.763125 11.0625 8.52625 12.125 9.3125 C19.47448545 16.18267118 24.281645 25.271811 28.01953125 34.5234375 C28.34308594 35.32007813 28.66664063 36.11671875 29 36.9375 C29.4021875 38.00291016 29.4021875 38.00291016 29.8125 39.08984375 C32.32983535 43.13911015 37.39035288 44.70697313 41.57055664 46.70092773 C55.19146298 53.24187634 67.41372766 60.97946232 73.34765625 75.546875 C75.65550158 84.22547901 74.04005998 93.04556861 70.6875 101.1875 C68.80307099 104.32821501 66.7569737 106.59648447 64 109 C63.34 109 62.68 109 62 109 C62.13277344 108.40832031 62.26554688 107.81664062 62.40234375 107.20703125 C62.76767793 105.57236079 63.12950483 103.93690352 63.48828125 102.30078125 C63.84531348 100.69549893 64.22614846 99.09540615 64.625 97.5 C66.21312918 86.91247213 63.91505816 77.72419047 57.6484375 69.02734375 C50.4489832 60.17303858 40.59140203 55.66871393 29.5625 53.4375 C23.54645237 51.84773303 23.54645237 51.84773303 21.25 48.28515625 C20.4426001 46.05152692 19.71168648 43.78908383 19.05078125 41.5078125 C14.93618317 27.77209104 3.90600358 14.73974913 -8 7 C-26.09990811 -2.68636322 -44.19228812 -4.22333171 -64 1 C-67.8318725 2.2148279 -71.56824156 3.62841465 -75.3046875 5.109375 C-78 6 -78 6 -80 5 C-61.06987113 -16.04731434 -22.55808637 -12.08167173 0 0 Z " fill="#F9D4D1" transform="translate(520,318)"/>
<path d="M0 0 C2.625 2.875 2.625 2.875 4 5 C2.80375 4.5875 1.6075 4.175 0.375 3.75 C-21.61930363 -3.53517944 -42.51371217 -6.72891459 -64 4 C-80.05111189 13.42385925 -90.12945256 28.03057559 -97 45 C-97.32871094 46.31484375 -97.32871094 46.31484375 -97.6640625 47.65625 C-99 50 -99 50 -102.30859375 51.37109375 C-103.68070505 51.74241037 -105.05741233 52.09702461 -106.4375 52.4375 C-118.05761286 55.6877993 -129.54792362 60.65955914 -135.8125 71.5 C-142.02305005 83.20042194 -140.58491483 95.39854019 -138 108 C-141.02915924 106.68521599 -142.73521878 105.45665439 -144.625 102.75 C-145.02976562 102.18796875 -145.43453125 101.6259375 -145.8515625 101.046875 C-150.55076102 92.67143274 -150.5485099 81.13115594 -148.23046875 71.953125 C-141.98590276 58.09592556 -128.20750043 49.9308749 -114.67138672 44.62231445 C-110.18229783 42.79543616 -107.11878518 40.85564102 -104 37 C-102.81772278 34.28653035 -102.81772278 34.28653035 -102.125 31.375 C-97.73687299 17.16582682 -87.64470129 6.10478258 -74.98046875 -1.46875 C-53.18120104 -12.66837378 -20.43935106 -15.88824307 0 0 Z " fill="#FAD5D2" transform="translate(411,319)"/>
<path d="M0 0 C0.99 0.99 0.99 0.99 2 2 C1.625 5.625 1.625 5.625 1 9 C-4.69240358 10.27638946 -8.32968402 9.5236002 -13.5 7.125 C-24.86146218 1.99477275 -38.84042613 0.77330441 -50.7421875 5.03515625 C-59.9897274 8.98695963 -67.94190636 14.68978081 -74.1015625 22.75 C-76 25 -76 25 -79.0625 25.5 C-82 25 -82 25 -83.9375 23.8125 C-85 22 -85 22 -84.75390625 19.625 C-83.45267665 15.09429384 -80.23954622 12.30690918 -77 9 C-76.02353516 7.98679687 -76.02353516 7.98679687 -75.02734375 6.953125 C-53.77776454 -13.54179626 -25.14511634 -11.81557168 0 0 Z " fill="#070404" transform="translate(494,522)"/>
<path d="M0 0 C0.33 0 0.66 0 1 0 C0.72069564 6.56365255 -1.72227188 11.03975796 -6 16 C-13.80342244 22.35702149 -23.40404297 22.55760291 -33 22 C-34.485 21.505 -34.485 21.505 -36 21 C-36.37125 22.27617187 -36.37125 22.27617187 -36.75 23.578125 C-42.25724016 38.65419493 -54.36477194 51.05348558 -68.72900391 57.8137207 C-74.23615421 60.15761591 -79.19090284 60.42370872 -85.125 60.3125 C-85.99253906 60.31572266 -86.86007812 60.31894531 -87.75390625 60.32226562 C-92.55686743 60.28205819 -96.49281494 59.85459582 -101 58 C-101 57.67 -101 57.34 -101 57 C-99.81664062 56.90203125 -98.63328125 56.8040625 -97.4140625 56.703125 C-82.27206953 55.32497769 -69.47596356 51.85437981 -59 40 C-58.46890625 39.41089844 -57.9378125 38.82179688 -57.390625 38.21484375 C-50.29823004 29.82008422 -45.78587863 19.57274915 -43 9 C-42.21238281 9.2165625 -41.42476563 9.433125 -40.61328125 9.65625 C-30.00780991 12.36723439 -19.52801541 14.05829079 -9.23046875 9.421875 C-5.93809022 7.32305576 -3.65624756 4.67676156 -1.27734375 1.609375 C-0.85582031 1.07828125 -0.43429687 0.5471875 0 0 Z " fill="#FED7D4" transform="translate(551,384)"/>
<path d="M0 0 C0.41572266 0.87398437 0.41572266 0.87398437 0.83984375 1.765625 C6.33125999 12.3416859 15.45125187 19.81290872 26 25 C22.54730734 30.17903899 15.75814771 31.15342655 10 33 C8.19208984 33.58201172 8.19208984 33.58201172 6.34765625 34.17578125 C-0.78116316 36.34199709 -7.55023083 37.69592779 -15 38 C-17.125 31.25 -17.125 31.25 -16 29 C-15.87759865 27.23229673 -15.82448847 25.45939538 -15.8125 23.6875 C-15.79123047 22.27017578 -15.79123047 22.27017578 -15.76953125 20.82421875 C-16.01175665 17.85593118 -16.75973393 15.69132835 -18 13 C-17.49025635 12.64172119 -16.9805127 12.28344238 -16.45532227 11.91430664 C-14.15699741 10.29805514 -11.85973648 8.68029803 -9.5625 7.0625 C-8.35883789 6.21655273 -8.35883789 6.21655273 -7.13085938 5.35351562 C-6.36708984 4.81533203 -5.60332031 4.27714844 -4.81640625 3.72265625 C-3.75595093 2.97640991 -3.75595093 2.97640991 -2.67407227 2.21508789 C-1.05303063 1.10532955 -1.05303063 1.10532955 0 0 Z " fill="#D17C75" transform="translate(475,573)"/>
<path d="M0 0 C1.37562854 1.28965176 2.70766393 2.62689293 4 4 C4 4.66 4 5.32 4 6 C16.11016951 12.11013098 25.49561456 13.85161124 38.72265625 9.65625 C41 9 41 9 44 9 C44.30292969 9.89460938 44.60585938 10.78921875 44.91796875 11.7109375 C50.35716971 27.40930828 56.7949561 41.62502929 72 50 C73.03833984 50.58201172 73.03833984 50.58201172 74.09765625 51.17578125 C80.82880504 54.74238225 87.31405813 56.22021548 94.9375 56.625 C95.62134766 56.66367187 96.30519531 56.70234375 97.00976562 56.7421875 C98.67279513 56.83522412 100.33635847 56.91863787 102 57 C98.2757374 60.7242626 93.10494668 60.20847558 88.0625 60.3125 C82.16029868 60.28169519 79.39617728 59.83256481 75 56 C71.536509 54.35513136 68.72993487 53.86524474 64.9375 53.625 C56.31226195 52.12546401 50.68085525 45.02781955 45.72705078 38.26123047 C41.97694687 32.80583555 38.9214194 27.37302474 37 21 C36.01 21.33 35.02 21.66 34 22 C23.93816055 22.87183552 15.90439238 21.33726526 7.125 16.375 C2.9403527 11.69804125 0 6.30808381 0 0 Z " fill="#FDD6D3" transform="translate(306,384)"/>
<path d="M0 0 C4.01855659 2.26980639 6.46370236 5.19555353 9 9 C9.82107258 14.59822216 9.20403613 19.2491878 6 24 C1.0751504 28.44437647 -1.95161487 29.3563486 -8.45703125 29.28125 C-13.18112709 28.75876935 -15.78578919 26.33563189 -18.875 22.9375 C-20.64630636 18.31242228 -20.64542523 13.88371757 -20 9 C-15.83949704 0.37080867 -9.09529608 -1.63949543 0 0 Z " fill="#FAFAFA" transform="translate(525,449)"/>
<path d="M0 0 C3.66360754 1.25745342 6.27555006 3.22881135 8.9375 6.0625 C11.06910661 11.95576534 11.01148334 17.82142049 8.375 23.5 C4.51073716 27.5676451 1.05798327 29.1479244 -4.5 29.4375 C-8.97697941 29.27922295 -11.56158814 27.94721017 -15 25 C-18.68057209 20.8117628 -19.45742674 16.80377221 -19.421875 11.35546875 C-18.68408378 7.23613444 -16.06558431 4.69264218 -13 2 C-8.72720408 -0.84853061 -5.01486399 -0.61639451 0 0 Z " fill="#FBFBFB" transform="translate(384,449)"/>
<path d="M0 0 C0.928125 0.845625 1.85625 1.69125 2.8125 2.5625 C10.60201799 9.24149608 18.98863943 15.27566112 29.5 15.3125 C31.15515625 15.33763672 31.15515625 15.33763672 32.84375 15.36328125 C36.31718631 14.96349217 38.07525248 13.81795094 41 12 C44.83598743 13.27866248 45.22881584 14.62932036 47.25 18.0625 C50.90125565 24.01613979 55.07254903 29.07254903 60 34 C58.73308493 34.67408308 57.46129251 35.33900497 56.1875 36 C55.47980469 36.37125 54.77210938 36.7425 54.04296875 37.125 C52 38 52 38 49 38 C45.31332089 34.15412338 39 27.51883764 39 22 C38.01 22.495 38.01 22.495 37 23 C26.19919517 23.87405357 18.6947272 23.49485756 10.08203125 16.42578125 C5.60005824 12.32606607 2.45298878 7.55031101 0 2 C0 1.34 0 0.68 0 0 Z " fill="#D37D76" transform="translate(294,405)"/>
<path d="M0 0 C0.495 0.99 0.495 0.99 1 2 C-3.07468046 10.59102208 -8.9318719 16.71793419 -17.24609375 21.21484375 C-20.35060992 22.09996113 -22.98685702 21.92491279 -26.18188477 21.66796875 C-29.84175295 21.39542959 -33.40334557 21.15196254 -37 22 C-40.44671843 25.12737391 -41.27862752 27.55774843 -43 32 C-48.94 31.01 -48.94 31.01 -55 30 C-54.154375 28.906875 -53.30875 27.81375 -52.4375 26.6875 C-48.65048031 21.65320414 -45.32268747 16.34775735 -42 11 C-36.25 12.875 -36.25 12.875 -34 14 C-23.87580848 15.49484707 -16.35880308 12.24196126 -8 7 C-5.14319139 4.83016589 -2.50865479 2.56319076 0 0 Z " fill="#D37D76" transform="translate(560,406)"/>
<path d="M0 0 C0.33 0 0.66 0 1 0 C1.15855469 0.61746094 1.31710937 1.23492187 1.48046875 1.87109375 C5.67275533 17.08839916 14.22086651 27.4291566 27.890625 35.37109375 C31.54126478 37.28355203 35.07157185 38.76755195 39 40 C39 40.33 39 40.66 39 41 C26.58741231 41.54054817 14.59990059 40.71466386 5 32 C-1.00077244 24.89614439 -2.43132485 17.05782193 -2 8 C-1.25 1.25 -1.25 1.25 0 0 Z " fill="#0B0706" transform="translate(478,334)"/>
<path d="M0 0 C3.64256342 3.64256342 2.49325429 9.32903913 2.50854492 14.25 C2.31672714 23.04046447 -0.30160544 27.98460019 -6.1875 34.375 C-16.68056577 40.43766022 -27.14586294 41.17518429 -39 41 C-36.3637791 39.2425194 -34.4366603 38.39520342 -31.5 37.375 C-18.14419717 32.11066896 -9.27254413 22.58443286 -3.22265625 9.85546875 C-1.82336201 6.58746847 -0.78685255 3.46215122 0 0 Z " fill="#080505" transform="translate(376,334)"/>
<path d="M0 0 C2.375 1 2.375 1 4 2 C4 2.66 4 3.32 4 4 C4.66 4 5.32 4 6 4 C7.71194433 8.41501433 8.2684225 10.10525832 6.875 14.75 C3.9973262 19.73796791 3.9973262 19.73796791 1 21 C-3.8192297 21.28933462 -7.07161568 20.6769469 -11 17.8125 C-13.24589004 14.65421713 -13.91957974 12.86017231 -14 9 C-13.0625 6.125 -13.0625 6.125 -12 4 C-11.34 4 -10.68 4 -10 4 C-10 3.34 -10 2.68 -10 2 C-6.58794404 -0.09972674 -3.9699753 -0.33083127 0 0 Z " fill="#000000" transform="translate(597,295)"/>
<path d="M0 0 C4.62 0 9.24 0 14 0 C12.68 1.65 11.36 3.3 10 5 C9.01 5 8.02 5 7 5 C14.05237392 16.94755112 24.36489272 26.09275366 37.90209961 29.78515625 C44.53320733 31.45200051 51.15893735 32.67110276 58 33 C58 33.33 58 33.66 58 34 C43.102048 35.89180343 30.05720996 35.31237683 17 27 C9.99502345 21.47767186 5.82562784 14.96483174 2 7 C1.61714844 6.29488281 1.23429687 5.58976563 0.83984375 4.86328125 C0 3 0 3 0 0 Z " fill="#CD7973" transform="translate(290,567)"/>
<path d="M0 0 C4.29 0.33 8.58 0.66 13 1 C9.65291956 13.01011217 3.64501669 22.25921847 -7 29 C-19.20408297 35.27050275 -31.61384885 36.02055112 -45 34 C-45 33.67 -45 33.34 -45 33 C-43.94683594 32.92523437 -42.89367187 32.85046875 -41.80859375 32.7734375 C-27.40599028 31.54464395 -14.85976944 28.06996803 -4 18 C-3.33097656 17.39800781 -2.66195312 16.79601562 -1.97265625 16.17578125 C1.33232318 13.06004399 3.77176683 10.50352162 5 6 C4.175 5.38125 3.35 4.7625 2.5 4.125 C1.675 3.42375 0.85 2.7225 0 2 C0 1.34 0 0.68 0 0 Z " fill="#D07B74" transform="translate(552,567)"/>
<path d="M0 0 C0.66 0.66 1.32 1.32 2 2 C0.741875 2.391875 -0.51625 2.78375 -1.8125 3.1875 C-4.60849584 4.26136035 -5.91032138 4.90471647 -8 7.125 C-12.98533096 21.4578265 -5.32774701 42.44998691 -0.8671875 56.16015625 C-0.07177585 58.76495026 0.51838276 61.32161838 1 64 C-3.28003359 60.5132485 -4.46411786 56.73188655 -6 51.625 C-6.25346191 50.79863037 -6.50692383 49.97226074 -6.76806641 49.12084961 C-16.96029307 14.5260182 -16.96029307 14.5260182 -11.94140625 4.98828125 C-8.35402029 0.42154957 -5.62211349 -0.35138209 0 0 Z " fill="#CBCDCE" transform="translate(374,583)"/>
<path d="M0 0 C0.66 0.33 1.32 0.66 2 1 C1.62488281 1.51046875 1.24976563 2.0209375 0.86328125 2.546875 C-7.96026044 15.08208284 -9.82746839 26.00543467 -10 41 C-12.58145619 39.70927191 -12.67974178 38.80800565 -13.625 36.125 C-15.86001273 28.85544829 -16.24360646 21.99307064 -13.125 14.9375 C-9.83840525 9.00257673 -4.96966627 4.53542359 0 0 Z " fill="#D57F78" transform="translate(312,447)"/>
<path d="M0 0 C7.4405708 4.17397874 12.97129492 10.93328586 15.56640625 19.10546875 C17.02293132 25.46956477 15.59676895 31.15131396 13 37 C12.34 37.66 11.68 38.32 11 39 C10.99742187 38.01902344 10.99484375 37.03804688 10.9921875 36.02734375 C10.709677 22.9469445 7.33361688 12.97656322 0 2 C0 1.34 0 0.68 0 0 Z " fill="#D57F78" transform="translate(543,448)"/>
<path d="M0 0 C3.375 0.9375 3.375 0.9375 5.375 3.9375 C5.72440459 6.73273674 5.74733787 8.3023354 4.3125 10.75 C1.28124457 12.60786623 -1.15922859 12.30883265 -4.625 11.9375 C-6.5625 10.75 -6.5625 10.75 -7.625 8.9375 C-8.21489164 5.65096084 -7.90537501 4.36367001 -6.0625 1.5625 C-3.625 -0.0625 -3.625 -0.0625 0 0 Z " fill="#F3F3F3" transform="translate(347.625,475.0625)"/>
<path d="M0 0 C1.8125 1.0625 1.8125 1.0625 3 3 C3.3125 6.5625 3.3125 6.5625 3 10 C0.67471713 12.32528287 0.15334102 12.29511025 -3 12.3125 C-3.70125 12.32925781 -4.4025 12.34601563 -5.125 12.36328125 C-5.74375 12.24339844 -6.3625 12.12351562 -7 12 C-9.31361802 8.52957297 -9.51020728 7.08165827 -9 3 C-6.30254095 0.00282328 -3.95012118 -0.60771095 0 0 Z " fill="#F5F5F5" transform="translate(489,475)"/>
<path d="M0 0 C2.28882919 2.94278039 3.82039068 5.46117205 5 9 C3.75539217 9.67667998 2.50403104 10.34094719 1.25 11 C0.55390625 11.37125 -0.1421875 11.7425 -0.859375 12.125 C-3 13 -3 13 -7 13 C-7.99 10.03 -8.98 7.06 -10 4 C-4.5 0 -4.5 0 0 0 Z " fill="#F8A298" transform="translate(467,582)"/>
<path d="M0 0 C0.66 0.66 1.32 1.32 2 2 C0.01432292 2.61848958 -1.97135417 3.23697917 -3.95703125 3.85546875 C-6.82603818 5.46277091 -7.63639322 7.01305181 -9 10 C-9.512489 12.64466251 -9.9095706 15.14794753 -10.1875 17.8125 C-10.26935547 18.50537109 -10.35121094 19.19824219 -10.43554688 19.91210938 C-10.63424293 21.60686984 -10.81859203 23.30330194 -11 25 C-11.33 25 -11.66 25 -12 25 C-13.34562567 18.94468449 -14.84822122 10.6619607 -11.953125 4.92578125 C-8.26959102 0.45137085 -5.6417759 -0.35261099 0 0 Z " fill="#BDBFC0" transform="translate(374,583)"/>
<path d="M0 0 C3.96 0 7.92 0 12 0 C9 3 9 3 6.73828125 3.29296875 C5.93777344 3.25816406 5.13726562 3.22335937 4.3125 3.1875 C3.10013672 3.14689453 3.10013672 3.14689453 1.86328125 3.10546875 C0.94095703 3.05326172 0.94095703 3.05326172 0 3 C0 2.01 0 1.02 0 0 Z " fill="#F9A399" transform="translate(415,564)"/>
<path d="M0 0 C1.66519519 0.34060811 3.33157466 0.67558396 5 1 C5 1.33 5 1.66 5 2 C-1.44070471 2.10655578 -7.62641289 1.96205088 -14 1 C-14 0.67 -14 0.34 -14 0 C-12.41773035 -0.19627391 -10.83410729 -0.38165538 -9.25 -0.5625 C-8.36828125 -0.66691406 -7.4865625 -0.77132812 -6.578125 -0.87890625 C-4.08538187 -0.99598964 -2.36542929 -0.72165639 0 0 Z " fill="#9E5D58" transform="translate(521,600)"/>
<path d="M0 0 C4.29 0.33 8.58 0.66 13 1 C13 1.33 13 1.66 13 2 C6.93303301 2.77040851 1.11485027 3.09706112 -5 3 C-5 2.67 -5 2.34 -5 2 C-3.35 1.67 -1.7 1.34 0 1 C0 0.67 0 0.34 0 0 Z " fill="#A3605B" transform="translate(335,599)"/>
<path d="M0 0 C0.99 0.66 1.98 1.32 3 2 C-0.96 2 -4.92 2 -9 2 C-4 -1.33333333 -4 -1.33333333 0 0 Z " fill="#291918" transform="translate(346,373)"/>
</svg>
