<?xml version="1.0" encoding="UTF-8"?>
<svg version="1.1" xmlns="http://www.w3.org/2000/svg" width="1000" height="1000">
<path d="M0 0 C330 0 660 0 1000 0 C1000 330 1000 660 1000 1000 C670 1000 340 1000 0 1000 C0 670 0 340 0 0 Z " fill="#FEFEFE" transform="translate(0,0)"/>
<path d="M0 0 C2.07853436 1.83707197 4.07052515 3.69622905 5.98828125 5.69921875 C9.00434272 4.3492349 11.02321464 2.82531401 13.36328125 0.51171875 C29.85200448 -14.11438944 51.13550048 -14.50874793 71.98828125 -13.30078125 C77.11961169 -12.79122939 82.03026108 -11.71299168 86.98828125 -10.30078125 C88.00277344 -10.03394531 89.01726562 -9.76710938 90.0625 -9.4921875 C110.38529287 -3.51489548 125.86915871 10.34706711 135.98828125 28.69921875 C139.98828125 36.95895901 139.98828125 36.95895901 139.98828125 40.69921875 C141.24640625 41.07046875 142.50453125 41.44171875 143.80078125 41.82421875 C159.47931239 47.16471842 172.6179404 58.20793753 180.30078125 72.94921875 C182.9056587 78.26888409 183.11822983 83.07600365 183.05078125 88.94921875 C183.04626953 89.69429688 183.04175781 90.439375 183.03710938 91.20703125 C183.02537371 93.03779515 183.00743975 94.86851748 182.98828125 96.69921875 C183.73207031 96.79589844 184.47585938 96.89257812 185.2421875 96.9921875 C191.11827014 98.50509071 194.79263391 103.70475531 197.80078125 108.72265625 C201.15088331 115.24569151 203.13482303 120.58192838 203.11328125 127.94921875 C203.11134766 129.39748047 203.11134766 129.39748047 203.109375 130.875 C203.00133173 133.39484798 202.64804345 135.66746208 202.17578125 138.13671875 C201.52451979 143.22922157 203.48340254 146.94102892 205.578125 151.50390625 C209.60709234 160.63325606 212.16185303 170.07775879 212.05078125 180.07421875 C212.04175781 181.13382813 212.03273438 182.1934375 212.0234375 183.28515625 C212.00603516 184.48011719 212.00603516 184.48011719 211.98828125 185.69921875 C212.64828125 185.69921875 213.30828125 185.69921875 213.98828125 185.69921875 C213.98828125 186.35921875 213.98828125 187.01921875 213.98828125 187.69921875 C214.64828125 187.69921875 215.30828125 187.69921875 215.98828125 187.69921875 C230.38243028 201.74953614 243.2551358 220.76719801 249.98828125 239.69921875 C250.30667969 240.53066406 250.62507813 241.36210938 250.953125 242.21875 C254.4642439 252.75210669 254.94095335 267.14142047 251.0234375 277.63671875 C244.56402183 290.50679978 233.11251291 297.43209451 219.86328125 301.88671875 C205.48095352 305.96356439 190.8198714 306.06231186 175.98828125 306.01171875 C174.57610825 306.01197556 174.57610825 306.01197556 173.13540649 306.01223755 C160.00073157 306.00205768 147.29380366 305.39942964 134.3125 303.2578125 C128.75949538 302.4001371 124.16885287 303.53603015 118.86328125 305.19921875 C110.43558155 307.82467037 110.43558155 307.82467037 105.79296875 307.83203125 C104.99906738 307.83380371 104.20516602 307.83557617 103.38720703 307.83740234 C102.55431152 307.83305176 101.72141602 307.82870117 100.86328125 307.82421875 C100.0110498 307.82373535 99.15881836 307.82325195 98.28076172 307.82275391 C93.84596987 307.79820553 89.51877624 307.63491811 85.11328125 307.07421875 C81.49564354 306.61493605 79.29460763 306.99595971 75.98828125 308.69921875 C74.99828125 308.69921875 74.00828125 308.69921875 72.98828125 308.69921875 C73.6592068 315.70649569 74.33524573 322.71326651 75.01464844 329.71972656 C75.24463528 332.09754571 75.473501 334.47547361 75.70117188 336.85351562 C76.34027944 343.52490165 76.99974082 350.1935305 77.69616699 356.85919189 C77.87782196 358.62529878 78.05293816 360.39210643 78.21789551 362.15985107 C78.40427157 364.15420818 78.62042094 366.14572655 78.83984375 368.13671875 C78.99573975 369.67005859 78.99573975 369.67005859 79.15478516 371.234375 C80.28744131 374.58390531 81.93644899 375.41680971 84.98828125 377.07421875 C85.97441406 377.49832031 86.96054687 377.92242188 87.9765625 378.359375 C99.2478169 383.3736944 109.11320113 394.47439016 113.98828125 405.69921875 C116.30304247 412.0059944 118.45576007 417.90646531 117.98828125 424.69921875 C115.72357537 429.33157169 115.72357537 429.33157169 112.98828125 430.69921875 C97.28040069 432.64279018 81.66411924 423.92774883 69.54296875 414.79296875 C60.21107918 407.1448146 60.21107918 407.1448146 57.98828125 402.69921875 C57.84066779 401.04699737 57.75153101 399.38939293 57.69116211 397.73168945 C57.63122826 396.16878677 57.63122826 396.16878677 57.57008362 394.5743103 C57.5121891 392.8669017 57.5121891 392.8669017 57.453125 391.125 C57.41005722 389.94483307 57.36698944 388.76466614 57.32261658 387.54873657 C57.18470491 383.70323857 57.0546791 379.85752875 56.92578125 376.01171875 C56.8809259 374.71710724 56.83607056 373.42249573 56.78985596 372.08865356 C56.1305293 352.95164516 55.67520141 333.8476633 55.98828125 314.69921875 C55.17713867 314.91360596 54.36599609 315.12799316 53.53027344 315.34887695 C52.45938477 315.62562256 51.38849609 315.90236816 50.28515625 316.1875 C49.22651367 316.46376221 48.16787109 316.74002441 47.07714844 317.0246582 C43.23211798 317.86435305 39.90331613 317.92508615 35.98828125 317.69921875 C36.05015625 318.70984375 36.11203125 319.72046875 36.17578125 320.76171875 C35.89681904 326.61992509 34.22533672 330.8255725 30.05078125 334.94921875 C22.93023466 340.55889306 13.21419299 341.00135913 4.484375 341.48828125 C1.8591807 341.61157508 1.8591807 341.61157508 -1.01171875 342.69921875 C-2.76237353 342.74690127 -4.51491348 342.73695763 -6.265625 342.69140625 C-7.28462891 342.67464844 -8.30363281 342.65789062 -9.35351562 342.640625 C-11.50473053 342.59627005 -13.65579914 342.5441567 -15.80664062 342.484375 C-16.82435547 342.47019531 -17.84207031 342.45601562 -18.890625 342.44140625 C-19.82463135 342.41933105 -20.7586377 342.39725586 -21.72094727 342.37451172 C-22.47690186 342.48166504 -23.23285645 342.58881836 -24.01171875 342.69921875 C-26.305254 346.13952163 -26.36525282 347.7845028 -26.609375 351.859375 C-26.68792725 353.11637207 -26.76647949 354.37336914 -26.84741211 355.66845703 C-26.92311691 357.03287192 -26.99871683 358.39729262 -27.07421875 359.76171875 C-27.15895972 361.15482343 -27.24433362 362.54788974 -27.33032227 363.94091797 C-27.73928088 370.74523693 -28.05964423 377.54505546 -28.25390625 384.359375 C-28.28863037 385.53685303 -28.32335449 386.71433105 -28.35913086 387.92749023 C-28.41798948 390.14673149 -28.46364869 392.36637278 -28.49438477 394.58618164 C-28.65807625 401.1122612 -29.29720465 404.75555736 -33.81640625 409.65625 C-46.71345701 421.21492756 -63.88701459 431.30595668 -81.6953125 430.9609375 C-84.01171875 430.69921875 -84.01171875 430.69921875 -86.63671875 429.32421875 C-89.53572587 423.7897506 -88.4461017 417.61640802 -86.88671875 411.76171875 C-81.72176954 396.38754752 -71.4651595 384.65259033 -57.05078125 377.16015625 C-55.3410775 376.36164132 -53.61707897 375.59235913 -51.875 374.8671875 C-49.85875845 373.88136719 -49.85875845 373.88136719 -49.43261719 371.90869141 C-46.77145292 359.2041496 -46.77145292 359.2041496 -49.5546875 347.25 C-51.61889354 345.66479125 -51.61889354 345.66479125 -53.87109375 344.32421875 C-59.5610565 340.00483097 -61.32776828 330.43502065 -63.01171875 323.69921875 C-63.78773438 323.89257812 -64.56375 324.0859375 -65.36328125 324.28515625 C-83.53611424 328.66571981 -101.63088296 329.89775773 -120.25830078 329.93945312 C-122.87564671 329.94917761 -125.49221131 329.9803226 -128.109375 330.01171875 C-148.09555365 330.1374395 -167.92682706 327.02057967 -183.01171875 312.69921875 C-197.34098913 296.43030946 -203.19884031 278.34831219 -202.17578125 256.88964844 C-201.49729127 247.83099942 -197.05366205 237.55315959 -191.26171875 230.59765625 C-189.81498944 228.81823574 -189.81498944 228.81823574 -190.140625 226.84375 C-191.76654494 222.84092467 -193.66496355 218.97688005 -195.5390625 215.0859375 C-199.1593894 206.76014592 -199.43404084 199.50143594 -199.44921875 190.44921875 C-199.45131851 189.44944504 -199.45131851 189.44944504 -199.45346069 188.42947388 C-199.42907284 174.29024385 -197.01632972 162.29672384 -191.19921875 149.44921875 C-188.28659281 142.46431026 -188.70319511 135.5270651 -189.1081543 128.09472656 C-189.50883128 118.46856539 -186.60044634 111.06404269 -180.734375 103.47265625 C-178.87159486 101.55496422 -176.99428923 100.42909041 -174.69921875 99.07421875 C-171.76088215 97.03571302 -171.10272931 96.17717487 -170.421875 92.6015625 C-170.31329921 90.16787584 -170.23750728 87.7325462 -170.19140625 85.296875 C-169.6117997 73.69214392 -162.44495457 63.31131707 -154.2109375 55.484375 C-147.43690843 49.98574039 -140.14788679 45.37107829 -131.94921875 42.38671875 C-128.68345991 40.99662898 -127.32735009 40.2323577 -125.50390625 37.15234375 C-124.70405899 35.10770108 -123.95265488 33.04356707 -123.24609375 30.96484375 C-116.77756686 13.85190551 -101.23213813 0.84662644 -85.0546875 -6.67578125 C-58.52462344 -17.66727512 -23.53559809 -17.9798538 0 0 Z " fill="#D27C75" transform="translate(421.01171875,308.30078125)"/>
<path d="M0 0 C2.07853436 1.83707197 4.07052515 3.69622905 5.98828125 5.69921875 C9.00434272 4.3492349 11.02321464 2.82531401 13.36328125 0.51171875 C29.85200448 -14.11438944 51.13550048 -14.50874793 71.98828125 -13.30078125 C77.11961169 -12.79122939 82.03026108 -11.71299168 86.98828125 -10.30078125 C88.00277344 -10.03394531 89.01726562 -9.76710938 90.0625 -9.4921875 C110.38529287 -3.51489548 125.86915871 10.34706711 135.98828125 28.69921875 C139.98828125 36.95895901 139.98828125 36.95895901 139.98828125 40.69921875 C141.24640625 41.07046875 142.50453125 41.44171875 143.80078125 41.82421875 C159.47931239 47.16471842 172.6179404 58.20793753 180.30078125 72.94921875 C182.9056587 78.26888409 183.11822983 83.07600365 183.05078125 88.94921875 C183.04626953 89.69429688 183.04175781 90.439375 183.03710938 91.20703125 C183.02537371 93.03779515 183.00743975 94.86851748 182.98828125 96.69921875 C183.73207031 96.79589844 184.47585938 96.89257812 185.2421875 96.9921875 C191.11827014 98.50509071 194.79263391 103.70475531 197.80078125 108.72265625 C201.15088331 115.24569151 203.13482303 120.58192838 203.11328125 127.94921875 C203.11134766 129.39748047 203.11134766 129.39748047 203.109375 130.875 C203.00133173 133.39484798 202.64804345 135.66746208 202.17578125 138.13671875 C201.52451979 143.22922157 203.48340254 146.94102892 205.578125 151.50390625 C209.60709234 160.63325606 212.16185303 170.07775879 212.05078125 180.07421875 C212.04175781 181.13382813 212.03273438 182.1934375 212.0234375 183.28515625 C212.00603516 184.48011719 212.00603516 184.48011719 211.98828125 185.69921875 C212.64828125 185.69921875 213.30828125 185.69921875 213.98828125 185.69921875 C213.98828125 186.35921875 213.98828125 187.01921875 213.98828125 187.69921875 C214.64828125 187.69921875 215.30828125 187.69921875 215.98828125 187.69921875 C230.38243028 201.74953614 243.2551358 220.76719801 249.98828125 239.69921875 C250.30667969 240.53066406 250.62507813 241.36210938 250.953125 242.21875 C254.4642439 252.75210669 254.94095335 267.14142047 251.0234375 277.63671875 C244.56402183 290.50679978 233.11251291 297.43209451 219.86328125 301.88671875 C205.48095352 305.96356439 190.8198714 306.06231186 175.98828125 306.01171875 C174.57610825 306.01197556 174.57610825 306.01197556 173.13540649 306.01223755 C160.00073157 306.00205768 147.29380366 305.39942964 134.3125 303.2578125 C128.75949538 302.4001371 124.16885287 303.53603015 118.86328125 305.19921875 C110.43558155 307.82467037 110.43558155 307.82467037 105.79296875 307.83203125 C104.99906738 307.83380371 104.20516602 307.83557617 103.38720703 307.83740234 C102.55431152 307.83305176 101.72141602 307.82870117 100.86328125 307.82421875 C100.0110498 307.82373535 99.15881836 307.82325195 98.28076172 307.82275391 C93.84596987 307.79820553 89.51877624 307.63491811 85.11328125 307.07421875 C81.49564354 306.61493605 79.29460763 306.99595971 75.98828125 308.69921875 C74.99828125 308.69921875 74.00828125 308.69921875 72.98828125 308.69921875 C73.6592068 315.70649569 74.33524573 322.71326651 75.01464844 329.71972656 C75.24463528 332.09754571 75.473501 334.47547361 75.70117188 336.85351562 C76.34027944 343.52490165 76.99974082 350.1935305 77.69616699 356.85919189 C77.87782196 358.62529878 78.05293816 360.39210643 78.21789551 362.15985107 C78.40427157 364.15420818 78.62042094 366.14572655 78.83984375 368.13671875 C78.99573975 369.67005859 78.99573975 369.67005859 79.15478516 371.234375 C80.28744131 374.58390531 81.93644899 375.41680971 84.98828125 377.07421875 C85.97441406 377.49832031 86.96054687 377.92242188 87.9765625 378.359375 C99.2478169 383.3736944 109.11320113 394.47439016 113.98828125 405.69921875 C116.30304247 412.0059944 118.45576007 417.90646531 117.98828125 424.69921875 C115.72357537 429.33157169 115.72357537 429.33157169 112.98828125 430.69921875 C97.28040069 432.64279018 81.66411924 423.92774883 69.54296875 414.79296875 C60.21107918 407.1448146 60.21107918 407.1448146 57.98828125 402.69921875 C57.84066779 401.04699737 57.75153101 399.38939293 57.69116211 397.73168945 C57.63122826 396.16878677 57.63122826 396.16878677 57.57008362 394.5743103 C57.5121891 392.8669017 57.5121891 392.8669017 57.453125 391.125 C57.41005722 389.94483307 57.36698944 388.76466614 57.32261658 387.54873657 C57.18470491 383.70323857 57.0546791 379.85752875 56.92578125 376.01171875 C56.8809259 374.71710724 56.83607056 373.42249573 56.78985596 372.08865356 C56.1305293 352.95164516 55.67520141 333.8476633 55.98828125 314.69921875 C55.17713867 314.91360596 54.36599609 315.12799316 53.53027344 315.34887695 C52.45938477 315.62562256 51.38849609 315.90236816 50.28515625 316.1875 C49.22651367 316.46376221 48.16787109 316.74002441 47.07714844 317.0246582 C43.23211798 317.86435305 39.90331613 317.92508615 35.98828125 317.69921875 C36.05015625 318.70984375 36.11203125 319.72046875 36.17578125 320.76171875 C35.89681904 326.61992509 34.22533672 330.8255725 30.05078125 334.94921875 C22.93023466 340.55889306 13.21419299 341.00135913 4.484375 341.48828125 C1.8591807 341.61157508 1.8591807 341.61157508 -1.01171875 342.69921875 C-2.76237353 342.74690127 -4.51491348 342.73695763 -6.265625 342.69140625 C-7.28462891 342.67464844 -8.30363281 342.65789062 -9.35351562 342.640625 C-11.50473053 342.59627005 -13.65579914 342.5441567 -15.80664062 342.484375 C-16.82435547 342.47019531 -17.84207031 342.45601562 -18.890625 342.44140625 C-19.82463135 342.41933105 -20.7586377 342.39725586 -21.72094727 342.37451172 C-22.47690186 342.48166504 -23.23285645 342.58881836 -24.01171875 342.69921875 C-26.305254 346.13952163 -26.36525282 347.7845028 -26.609375 351.859375 C-26.68792725 353.11637207 -26.76647949 354.37336914 -26.84741211 355.66845703 C-26.92311691 357.03287192 -26.99871683 358.39729262 -27.07421875 359.76171875 C-27.15895972 361.15482343 -27.24433362 362.54788974 -27.33032227 363.94091797 C-27.73928088 370.74523693 -28.05964423 377.54505546 -28.25390625 384.359375 C-28.28863037 385.53685303 -28.32335449 386.71433105 -28.35913086 387.92749023 C-28.41798948 390.14673149 -28.46364869 392.36637278 -28.49438477 394.58618164 C-28.65807625 401.1122612 -29.29720465 404.75555736 -33.81640625 409.65625 C-46.71345701 421.21492756 -63.88701459 431.30595668 -81.6953125 430.9609375 C-84.01171875 430.69921875 -84.01171875 430.69921875 -86.63671875 429.32421875 C-89.53572587 423.7897506 -88.4461017 417.61640802 -86.88671875 411.76171875 C-81.72176954 396.38754752 -71.4651595 384.65259033 -57.05078125 377.16015625 C-55.3410775 376.36164132 -53.61707897 375.59235913 -51.875 374.8671875 C-49.85875845 373.88136719 -49.85875845 373.88136719 -49.43261719 371.90869141 C-46.77145292 359.2041496 -46.77145292 359.2041496 -49.5546875 347.25 C-51.61889354 345.66479125 -51.61889354 345.66479125 -53.87109375 344.32421875 C-59.5610565 340.00483097 -61.32776828 330.43502065 -63.01171875 323.69921875 C-63.78773438 323.89257812 -64.56375 324.0859375 -65.36328125 324.28515625 C-83.53611424 328.66571981 -101.63088296 329.89775773 -120.25830078 329.93945312 C-122.87564671 329.94917761 -125.49221131 329.9803226 -128.109375 330.01171875 C-148.09555365 330.1374395 -167.92682706 327.02057967 -183.01171875 312.69921875 C-197.34098913 296.43030946 -203.19884031 278.34831219 -202.17578125 256.88964844 C-201.49729127 247.83099942 -197.05366205 237.55315959 -191.26171875 230.59765625 C-189.81498944 228.81823574 -189.81498944 228.81823574 -190.140625 226.84375 C-191.76654494 222.84092467 -193.66496355 218.97688005 -195.5390625 215.0859375 C-199.1593894 206.76014592 -199.43404084 199.50143594 -199.44921875 190.44921875 C-199.45131851 189.44944504 -199.45131851 189.44944504 -199.45346069 188.42947388 C-199.42907284 174.29024385 -197.01632972 162.29672384 -191.19921875 149.44921875 C-188.28659281 142.46431026 -188.70319511 135.5270651 -189.1081543 128.09472656 C-189.50883128 118.46856539 -186.60044634 111.06404269 -180.734375 103.47265625 C-178.87159486 101.55496422 -176.99428923 100.42909041 -174.69921875 99.07421875 C-171.76088215 97.03571302 -171.10272931 96.17717487 -170.421875 92.6015625 C-170.31329921 90.16787584 -170.23750728 87.7325462 -170.19140625 85.296875 C-169.6117997 73.69214392 -162.44495457 63.31131707 -154.2109375 55.484375 C-147.43690843 49.98574039 -140.14788679 45.37107829 -131.94921875 42.38671875 C-128.68345991 40.99662898 -127.32735009 40.2323577 -125.50390625 37.15234375 C-124.70405899 35.10770108 -123.95265488 33.04356707 -123.24609375 30.96484375 C-116.77756686 13.85190551 -101.23213813 0.84662644 -85.0546875 -6.67578125 C-58.52462344 -17.66727512 -23.53559809 -17.9798538 0 0 Z M-100.9453125 22.2578125 C-106.10146491 28.34967499 -109.78334729 34.43279351 -112.13671875 42.07421875 C-113.64059682 46.8903572 -114.71630633 49.74612271 -119.01171875 52.69921875 C-121.85700865 53.93262298 -124.73597141 55.06222473 -127.62109375 56.19921875 C-139.70731575 61.5461188 -152.62152065 70.27275559 -158.19921875 82.62890625 C-160.54503253 91.49337564 -160.73481411 102.75147019 -156.234375 110.9296875 C-154.31667659 113.70514238 -152.30201479 116.2180647 -150.01171875 118.69921875 C-155.6902551 117.27958466 -159.54346091 114.30557914 -164.01171875 110.69921875 C-169.03619315 115.89695089 -170.63340765 122.16831519 -171.38671875 129.19921875 C-170.19738973 140.2996229 -165.47502315 148.49752495 -157.01171875 155.69921875 C-150.14538298 160.89319171 -141.28385665 160.93625457 -133.01171875 161.69921875 C-142.19102163 166.59636545 -150.64762067 168.31054118 -160.94921875 165.63671875 C-166.0831119 163.96067756 -170.33042844 161.16521764 -174.76171875 158.125 C-176.8493292 156.52079829 -176.8493292 156.52079829 -179.01171875 156.69921875 C-180.32306811 160.91392463 -181.60970139 165.13354614 -182.83203125 169.375 C-183.03844238 170.09083252 -183.24485352 170.80666504 -183.45751953 171.54418945 C-184.41636629 175.27270941 -184.92262951 178.85565459 -185.01171875 182.69921875 C-185.05039063 183.8490625 -185.0890625 184.99890625 -185.12890625 186.18359375 C-185.41045448 201.76259571 -183.24443983 213.47931327 -172.19921875 225.07421875 C-165.09525075 231.87789838 -165.09525075 231.87789838 -156.01171875 234.69921875 C-156.04652344 233.55324219 -156.08132813 232.40726563 -156.1171875 231.2265625 C-156.14534578 229.69662936 -156.17264374 228.16668021 -156.19921875 226.63671875 C-156.22435547 225.88455078 -156.24949219 225.13238281 -156.27539062 224.35742188 C-156.34454026 219.03290019 -155.41841209 215.45575441 -153.01171875 210.69921875 C-152.52703125 211.69179688 -152.04234375 212.684375 -151.54296875 213.70703125 C-147.01721475 222.90423756 -142.20377603 231.86167444 -137.01171875 240.69921875 C-136.35171875 240.69921875 -135.69171875 240.69921875 -135.01171875 240.69921875 C-134.7590625 241.27671875 -134.50640625 241.85421875 -134.24609375 242.44921875 C-130.94180341 248.47222898 -124.91711202 253.32470831 -119.01171875 256.69921875 C-118.35171875 256.69921875 -117.69171875 256.69921875 -117.01171875 256.69921875 C-117.01171875 257.35921875 -117.01171875 258.01921875 -117.01171875 258.69921875 C-121.63171875 258.69921875 -126.25171875 258.69921875 -131.01171875 258.69921875 C-128.61622279 270.67669855 -121.41629193 280.16493181 -111.44921875 287.13671875 C-104.94091665 291.13661275 -98.67604986 293.231168 -91.01171875 293.69921875 C-89.99851562 293.76109375 -89.99851562 293.76109375 -88.96484375 293.82421875 C-82.2047373 294.02159412 -75.65444174 292.84911825 -69.01171875 291.69921875 C-68.99753906 290.92578125 -68.98335938 290.15234375 -68.96875 289.35546875 C-68.56732721 280.58926293 -66.84808574 275.26155953 -60.38671875 269.26171875 C-55.51494605 266.05660513 -50.65117007 266.32325533 -45.01171875 266.69921875 C-41.38671875 267.69921875 -41.38671875 267.69921875 -39.01171875 268.69921875 C-39.45200806 265.10352273 -39.98446018 261.7858048 -41.07421875 258.32421875 C-42.47995513 252.88870474 -43.15614199 248.04008447 -40.63671875 242.88671875 C-35.61532434 238.70222341 -29.87323107 236.22936508 -23.26171875 236.69921875 C-18.20779722 237.62458466 -14.68953033 239.43030824 -11.5703125 243.6484375 C-8.29840511 248.9897564 -7.30805276 253.4762045 -7.01171875 259.69921875 C1.3353146 260.51502962 6.17092393 258.0165683 13.23828125 253.76171875 C14.75953613 252.88060425 14.75953613 252.88060425 16.31152344 251.98168945 C21.86083583 248.72624083 27.10592032 245.2564707 32.23828125 241.38671875 C37.07721039 237.91392528 40.5669699 236.57438604 46.54296875 237.140625 C51.61667817 238.2996353 54.79809428 240.04831424 57.92578125 244.38671875 C59.65551803 249.77942755 59.71660003 254.42322255 57.98828125 259.82421875 C52.49717046 267.71769051 43.95170267 272.58935667 35.98828125 277.69921875 C36.31441406 278.40949219 36.64054688 279.11976563 36.9765625 279.8515625 C38.04801234 282.86734216 38.22450072 285.07723732 38.17578125 288.26171875 C38.16611328 289.65583984 38.16611328 289.65583984 38.15625 291.078125 C37.98828125 293.69921875 37.98828125 293.69921875 37.3515625 295.7265625 C36.842144 298.49275972 37.81187687 300.20800947 38.98828125 302.69921875 C46.36674418 302.66537259 53.09874784 300.99159818 60.11328125 298.88671875 C60.94762695 298.63841309 61.78197266 298.39010742 62.64160156 298.13427734 C67.63647164 296.58899556 72.32025367 294.74129607 77.01879883 292.44384766 C80.20895097 291.23770361 82.73619113 291.9305429 85.98828125 292.69921875 C101.24443638 294.98764202 115.10226549 293.84640877 127.98828125 284.69921875 C129.04015625 283.97734375 130.09203125 283.25546875 131.17578125 282.51171875 C137.64882847 276.03867153 141.55014217 268.44783544 143.98828125 259.69921875 C139.69828125 259.36921875 135.40828125 259.03921875 130.98828125 258.69921875 C133.90385345 255.59554512 136.859071 253.0245245 140.30078125 250.51171875 C153.10698303 240.61023493 159.71417707 225.20808466 165.98828125 210.69921875 C168.57053181 213.28146931 168.9083816 215.21669358 169.10180664 218.80566406 C169.09656982 219.53881836 169.09133301 220.27197266 169.0859375 221.02734375 C169.08271484 221.8265625 169.07949219 222.62578125 169.07617188 223.44921875 C169.06779297 224.27421875 169.05941406 225.09921875 169.05078125 225.94921875 C169.04626953 226.7896875 169.04175781 227.63015625 169.03710938 228.49609375 C169.02536086 230.56383276 169.00742647 232.63153499 168.98828125 234.69921875 C178.33414368 231.90495509 186.57364221 225.86939929 191.98828125 217.69921875 C200.75184799 200.0127477 200.34667689 179.5089195 194.27734375 160.91796875 C193.22164581 157.67022685 193.22164581 157.67022685 190.98828125 155.69921875 C190.27865234 156.27929688 190.27865234 156.27929688 189.5546875 156.87109375 C180.18314136 164.25141469 170.96366082 167.70293554 158.98828125 166.69921875 C154.19866662 165.65740992 150.08007699 164.42708258 145.98828125 161.69921875 C147.01566406 161.62445313 148.04304688 161.5496875 149.1015625 161.47265625 C160.21535509 160.49103876 169.07973919 158.22928457 176.98828125 149.76171875 C183.09704737 142.10383969 185.00788662 133.364519 183.98828125 123.69921875 C182.45674873 118.08095438 180.9783668 113.95954776 175.98828125 110.69921875 C175.55257813 111.10914063 175.116875 111.5190625 174.66796875 111.94140625 C170.94465491 115.31011877 167.9804216 117.48162354 162.98828125 118.69921875 C163.47039062 118.17972656 163.9525 117.66023438 164.44921875 117.125 C171.90947075 108.88827279 173.39812681 101.77170891 173.26171875 90.72265625 C172.42889864 81.51404529 166.41359945 73.60652311 159.65234375 67.63671875 C153.1096516 62.60690136 146.00362705 58.99730754 138.58984375 55.4609375 C129.69227895 51.1472126 129.69227895 51.1472126 128.05078125 46.76171875 C127.56544922 45.570625 127.56544922 45.570625 127.0703125 44.35546875 C126.71324219 43.47890625 126.35617187 42.60234375 125.98828125 41.69921875 C118.3104153 24.54506779 107.41047736 13.07993662 89.98828125 5.69921875 C86.69204359 4.47490191 83.4053332 3.52214514 79.98828125 2.69921875 C79.23160156 2.49425781 78.47492188 2.28929687 77.6953125 2.078125 C60.57535907 -1.86844614 41.20766329 -0.80127152 25.98828125 8.44921875 C20.59236078 12.44964255 15.7404688 17.5352946 12.48046875 23.421875 C10.98828125 25.69921875 10.98828125 25.69921875 7.48828125 26.57421875 C3.98828125 26.69921875 3.98828125 26.69921875 0.98828125 25.69921875 C0.28117447 24.04930293 -0.37734531 22.37844255 -1.01171875 20.69921875 C-5.43506217 12.04485119 -14.48727274 6.85621421 -23.33203125 3.48828125 C-30.64215011 1.33573896 -37.44688514 0.33761574 -45.07421875 0.38671875 C-45.98671387 0.3916333 -46.89920898 0.39654785 -47.83935547 0.40161133 C-68.13232991 0.74745384 -86.74007209 7.23939196 -100.9453125 22.2578125 Z " fill="#040404" transform="translate(421.01171875,308.30078125)"/>
<path d="M0 0 C0.59425781 0.42410156 1.18851563 0.84820312 1.80078125 1.28515625 C7.25786137 5.49645133 10.42701438 10.3983044 11.6796875 17.1171875 C12.79320738 27.13886641 13.70950022 38.18904286 8 47 C4.23735291 51.43907803 -0.38415465 53.69379328 -6.16796875 54.18359375 C-13.64680929 54.39655906 -19.01824261 52.61093799 -25 48 C-30.54215844 42.22530344 -32.13703055 38.73332272 -32.5 30.6875 C-32.81180786 23.79216991 -32.81180786 23.79216991 -34 17 C-34.52787109 18.35931641 -34.52787109 18.35931641 -35.06640625 19.74609375 C-41.28570823 35.09136888 -50.10102124 45.69788838 -65.3984375 52.7734375 C-68.14468473 53.99035945 -68.14468473 53.99035945 -71 56 C-66.41659388 57.30461801 -61.98424041 57.18404939 -57.25 57.1875 C-56.38117188 57.19974609 -55.51234375 57.21199219 -54.6171875 57.22460938 C-50.50314761 57.23387523 -46.77711201 57.07545785 -42.796875 55.98828125 C-36.04400783 54.23059052 -30.93352875 54.91967248 -24.5625 57.5625 C-23.90507812 57.83280029 -23.24765625 58.10310059 -22.5703125 58.3815918 C-17.13679298 60.73051304 -12.96669733 63.55912276 -9 68 C-8.38769531 68.67933594 -7.77539062 69.35867188 -7.14453125 70.05859375 C4.63267405 84.14603975 9.73618787 105.0460258 9.37109375 123.171875 C9 126 9 126 7 129.125 C3.36722907 131.39548183 0.14700748 132.93342616 -4 134 C-4.89589844 134.2371875 -5.79179687 134.474375 -6.71484375 134.71875 C-9.71652002 135.2787335 -11.98735602 135.53377176 -15 135 C-17.24202599 132.98837985 -18.67988335 130.88674462 -20.31640625 128.36328125 C-24.27406688 122.80786435 -31.19571975 119.88471634 -37.6875 118.375 C-48.43662574 117.15811784 -58.4795366 118.50213781 -67.4375 125.25 C-75.5070153 133.90996764 -78.47700334 141.87444612 -78.24609375 153.71875 C-77.53966705 163.13777271 -74.1289179 170.40273822 -67.078125 176.72265625 C-60.31760037 182.05508556 -54.25642468 184.56146274 -45.6875 184.4375 C-44.93984375 184.42847656 -44.1921875 184.41945313 -43.421875 184.41015625 C-33.75210804 184.10849974 -27.02865293 180.94196374 -19.98046875 174.29296875 C-14.31701105 167.73586881 -11.98337705 160.31258546 -11.4375 151.8125 C-11.35371094 150.54019531 -11.26992188 149.26789063 -11.18359375 147.95703125 C-11.12300781 146.98121094 -11.06242188 146.00539063 -11 145 C-9.10787298 144.46585888 -7.21108364 143.94821671 -5.3125 143.4375 C-4.25675781 143.14746094 -3.20101562 142.85742188 -2.11328125 142.55859375 C1.07995457 141.98565432 2.9445549 141.96416768 6 143 C8.1684472 144.56451564 8.87379386 145.44574472 9.46875 148.05859375 C9.60303408 158.28096929 5.72440234 167.11479884 -1.28515625 174.5078125 C-3.36639431 176.31882147 -5.31555735 177.34922602 -8 178 C-8 178.66 -8 179.32 -8 180 C-7.10861328 180.38478516 -7.10861328 180.38478516 -6.19921875 180.77734375 C-1.76501857 183.24253852 1.15213559 187.52423591 2.78125 192.28125 C3.48125873 196.21206826 3.35330806 199.20431631 1.3125 202.6875 C-5.66031506 210.94377277 -17.75421068 213.641192 -28 215 C-33.32205365 215.44814575 -38.64758389 215.47501888 -43.98535156 215.44604492 C-46.36611545 215.43753177 -48.74447068 215.46642741 -51.125 215.49804688 C-77.23923922 215.61913351 -100.40734537 205.30903787 -119 187 C-127.08503112 178.92988591 -133.18964506 169.34596339 -138 159 C-138 158.34 -138 157.68 -138 157 C-137.16855469 156.73445312 -136.33710938 156.46890625 -135.48046875 156.1953125 C-133.85044922 155.66550781 -133.85044922 155.66550781 -132.1875 155.125 C-130.56908203 154.60292969 -130.56908203 154.60292969 -128.91796875 154.0703125 C-125.86684198 153.08040347 -125.86684198 153.08040347 -123 151 C-124.57587891 150.87044922 -124.57587891 150.87044922 -126.18359375 150.73828125 C-138.02429484 149.61798613 -145.86848019 147.04061051 -154.2734375 138.18359375 C-159.62794015 131.41172276 -161.55842587 123.51599451 -161 115 C-159.7207095 108.56325488 -158.14889676 104.17478116 -153 100 C-152.56429688 100.40992188 -152.12859375 100.81984375 -151.6796875 101.2421875 C-147.95637366 104.61090002 -144.99214035 106.78240479 -140 108 C-140.39832031 107.5875 -140.79664063 107.175 -141.20703125 106.75 C-141.73683594 106.1725 -142.26664062 105.595 -142.8125 105 C-143.33457031 104.443125 -143.85664063 103.88625 -144.39453125 103.3125 C-150.22866378 94.90907796 -150.14698269 84.83061685 -149 75 C-146.30821417 64.42318497 -136.62875797 56.09714215 -127.6953125 50.4296875 C-123.48814827 48.19806126 -119.10390558 46.36064902 -114.67138672 44.62231445 C-110.18229783 42.79543616 -107.11878518 40.85564102 -104 37 C-102.81772278 34.28653035 -102.81772278 34.28653035 -102.125 31.375 C-97.73687299 17.16582682 -87.64470129 6.10478258 -74.98046875 -1.46875 C-52.53567951 -13.00001787 -21.20420043 -15.31635491 0 0 Z " fill="#FDA59B" transform="translate(411,319)"/>
<path d="M0 0 C2.18503894 1.67434536 4.26505712 3.42256339 6.33984375 5.23046875 C7.37109375 5.99359375 8.40234375 6.75671875 9.46484375 7.54296875 C16.8143292 14.41313993 21.62148875 23.50227975 25.359375 32.75390625 C25.68292969 33.55054688 26.00648438 34.3471875 26.33984375 35.16796875 C26.74203125 36.23337891 26.74203125 36.23337891 27.15234375 37.3203125 C29.6696791 41.3695789 34.73019663 42.93744188 38.91040039 44.93139648 C52.53130673 51.47234509 64.75357141 59.20993107 70.6875 73.77734375 C72.99534533 82.45594776 71.37990373 91.27603736 68.02734375 99.41796875 C66.15886386 102.5321019 64.00612299 104.78037432 61.33984375 107.23046875 C67.0183801 105.81083466 70.87158591 102.83682914 75.33984375 99.23046875 C80.85737086 105.31877452 82.92139022 111.49428976 82.62109375 119.65234375 C81.63258837 128.71364308 78.34311064 136.07521319 71.265625 141.953125 C62.80816465 147.96043104 54.57101103 149.67588211 44.33984375 150.23046875 C49.26197505 152.86412862 53.91887673 154.87522699 59.33984375 156.23046875 C57.22122237 171.11514203 42.24332659 186.74385888 30.55712891 195.578125 C26.60786628 198.34567684 22.51528659 200.82096536 18.33984375 203.23046875 C17.28216797 203.85695313 17.28216797 203.85695313 16.203125 204.49609375 C9.74792293 208.02475084 2.40285267 210.25299614 -4.66015625 212.23046875 C-5.67565552 212.51954102 -5.67565552 212.51954102 -6.71166992 212.81445312 C-14.62286823 214.73149245 -22.63969382 214.53267855 -30.72827148 214.49121094 C-33.22078697 214.4804768 -35.71258431 214.49116068 -38.20507812 214.50390625 C-39.81640781 214.50258469 -41.42773706 214.50002237 -43.0390625 214.49609375 C-44.13632408 214.50216644 -44.13632408 214.50216644 -45.25575256 214.50836182 C-52.48227434 214.44399674 -59.32656822 212.99594354 -66.03515625 210.29296875 C-66.84726562 209.97457031 -67.659375 209.65617188 -68.49609375 209.328125 C-70.68745061 208.2166245 -72.04331628 207.06114885 -73.66015625 205.23046875 C-67.5763245 202.18855287 -56.43903766 203.77529498 -49.97265625 205.453125 C-46.94453777 206.47102293 -43.99992936 207.66619044 -41.03515625 208.85546875 C-36.26003458 210.76439781 -32.76359373 211.82389171 -27.66015625 211.23046875 C-27.66015625 208.92046875 -27.66015625 206.61046875 -27.66015625 204.23046875 C-44.43674256 194.79847092 -61.81574346 192.84833079 -80.66015625 195.23046875 C-80.66015625 188.64094019 -77.89929001 185.76814312 -73.375 181.1484375 C-71.43798007 179.41077536 -71.43798007 179.41077536 -71.66015625 177.23046875 C-73.28402006 175.66613632 -73.28402006 175.66613632 -75.34765625 174.04296875 C-82.26259984 168.13160989 -86.12734132 162.53407919 -86.9140625 153.2265625 C-87.22122726 144.9925652 -87.22122726 144.9925652 -85.19921875 142.24609375 C-81.76830746 140.87372924 -79.74889199 141.67482155 -76.25048828 142.60839844 C-71.60286807 143.72452815 -66.85219119 143.97158175 -62.09765625 144.35546875 C-60.58461914 144.48501953 -60.58461914 144.48501953 -59.04101562 144.6171875 C-56.5811326 144.82703534 -54.12092723 145.03135342 -51.66015625 145.23046875 C-51.57378906 146.19726562 -51.48742187 147.1640625 -51.3984375 148.16015625 C-50.29361785 158.39747598 -48.23592436 167.65470064 -40.66015625 175.23046875 C-30.65553903 182.74806248 -21.9957702 184.44356471 -9.66015625 183.23046875 C-5.97945136 182.36962121 -2.9311778 181.10667734 0.33984375 179.23046875 C0.98179687 178.87984375 1.62375 178.52921875 2.28515625 178.16796875 C9.62992001 173.58941472 13.73989307 165.97328477 15.87109375 157.765625 C17.46324456 149.15474273 16.53700201 140.61565272 12.015625 133 C6.59835187 125.42150504 -0.41566399 119.89566669 -9.47265625 117.48046875 C-21.07696579 116.57032683 -30.26630909 117.71539102 -39.66015625 125.23046875 C-41.52221191 127.2811378 -43.30726832 129.36792486 -45.046875 131.5234375 C-47.66752507 134.29637717 -49.81331305 134.23704135 -53.57421875 134.3984375 C-75.7798118 134.61352095 -75.7798118 134.61352095 -85.32421875 128.09375 C-87.38468096 125.21994744 -87.19135447 122.26504437 -87.16015625 118.85546875 C-87.15048828 117.7418396 -87.15048828 117.7418396 -87.140625 116.60571289 C-86.55901272 98.08404016 -80.40626412 77.89954965 -67.296875 64.35546875 C-59.10455471 57.75306543 -49.28154666 53.40755021 -38.66015625 54.23046875 C-37.36244811 54.53944688 -36.0707269 54.874348 -34.78515625 55.23046875 C-30.03538291 56.40130449 -25.3987743 56.42190451 -20.53515625 56.41796875 C-19.38877686 56.41893555 -19.38877686 56.41893555 -18.21923828 56.41992188 C-13.60765565 56.3759735 -9.20990712 55.98473779 -4.66015625 55.23046875 C-5.47097656 54.96234375 -6.28179688 54.69421875 -7.1171875 54.41796875 C-20.62224333 49.63853106 -32.48883882 41.66948394 -39.515625 28.84375 C-41.61095153 24.39926878 -43.63458966 20.05529339 -44.66015625 15.23046875 C-45.49803757 20.16254287 -45.63858969 24.67877482 -45.41015625 29.66796875 C-45.35170922 35.55942921 -45.9063265 39.23615936 -49.37109375 44.0078125 C-50.66015625 45.23046875 -50.66015625 45.23046875 -52.66015625 45.23046875 C-52.66015625 45.89046875 -52.66015625 46.55046875 -52.66015625 47.23046875 C-59.18329174 52.42631613 -65.38103252 53.88236826 -73.66015625 53.23046875 C-79.18456407 51.82228636 -83.30877434 49.96795978 -86.84765625 45.41796875 C-90.10080846 39.69690796 -90.98326158 34.69261937 -90.91015625 28.16796875 C-90.91789062 27.47380859 -90.925625 26.77964844 -90.93359375 26.06445312 C-90.91806888 21.97753201 -90.37638861 18.92395741 -88.66015625 15.23046875 C-88.31984375 13.59078125 -88.31984375 13.59078125 -87.97265625 11.91796875 C-85.07161194 3.7674157 -78.23671419 -1.92713401 -70.66015625 -5.76953125 C-49.08561771 -15.27738021 -19.70947382 -13.11070725 0 0 Z " fill="#FCA59B" transform="translate(522.66015625,319.76953125)"/>
<path d="M0 0 C0.5547948 20.76070599 0.14672827 41.9376005 -15 58 C-15.99 58.495 -15.99 58.495 -17 59 C-18.98 52.07 -18.98 52.07 -21 45 C-23.11986295 47.82648394 -24.44845627 49.67921288 -25.796875 52.7578125 C-26.11213135 53.46107666 -26.4273877 54.16434082 -26.75219727 54.88891602 C-27.08147217 55.62682373 -27.41074707 56.36473145 -27.75 57.125 C-30.8862826 63.95392075 -34.29130719 70.10333423 -39 76 C-39.54140625 76.70382812 -40.0828125 77.40765625 -40.640625 78.1328125 C-44.51284412 82.89166123 -48.82407416 86.21805421 -53.9609375 89.5546875 C-56.11775581 90.84293158 -56.11775581 90.84293158 -57 93 C-52.71 93.33 -48.42 93.66 -44 94 C-47.34708044 106.01011217 -53.35498331 115.25921847 -64 122 C-76.36986594 128.35568265 -89.02869849 129.41434199 -102.4921875 126.33984375 C-107.52109125 125.65835679 -111.77602369 127.57185625 -116.4375 129.3125 C-127.14924275 133.17813938 -137.53738988 136.53213836 -149 137 C-151.125 130.25 -151.125 130.25 -150 128 C-149.87759865 126.23229673 -149.82448847 124.45939538 -149.8125 122.6875 C-149.79123047 121.27017578 -149.79123047 121.27017578 -149.76953125 119.82421875 C-150.01175665 116.85593118 -150.75973393 114.69132835 -152 112 C-151.5059668 111.65743164 -151.01193359 111.31486328 -150.50292969 110.96191406 C-148.24899829 109.39547934 -145.99948589 107.82281127 -143.75 106.25 C-142.97269531 105.71117187 -142.19539063 105.17234375 -141.39453125 104.6171875 C-133.39614796 99.24663884 -133.39614796 99.24663884 -129 91 C-128.66126435 86.23164426 -128.80029221 81.6488677 -130 77 C-126.80475168 75.40237584 -123.26667438 75.46288573 -119.75 75.125 C-86.37376308 71.61467773 -57.31906604 57.99355532 -35.09375 32.66796875 C-30.6589141 27.01686256 -26.75685278 20.80287698 -23.7421875 14.27734375 C-21.04854233 8.4850648 -21.04854233 8.4850648 -17.75390625 6.9609375 C-16.04015814 6.48620058 -14.31215375 6.06027622 -12.57421875 5.68359375 C-9.09601774 4.75994401 -6.52460681 3.0242658 -3.59375 0.98828125 C-2 0 -2 0 0 0 Z " fill="#FCA59B" transform="translate(609,474)"/>
<path d="M0 0 C2.79538178 2.14422226 4.42815213 4.85630426 6 8 C6.41216074 14.07937099 5.53092277 17.49191281 3 23 C22.6065033 21.59260249 42.18121217 15.04893292 57.625 2.4375 C60.32642113 0.2630377 61.08553148 -0.01425525 64.75 -0.625 C68 0 68 0 70.4375 1.625 C72 4 72 4 72.6875 6.8125 C71.06504462 14.33479313 62.39224958 19.125101 56.375 23.25 C55.63765625 23.765625 54.9003125 24.28125 54.140625 24.8125 C50.49981383 27.34410347 46.84359072 29.7819595 43 32 C43.84884766 32.50660156 43.84884766 32.50660156 44.71484375 33.0234375 C45.81505859 33.69246094 45.81505859 33.69246094 46.9375 34.375 C47.66839844 34.81585937 48.39929688 35.25671875 49.15234375 35.7109375 C51 37 51 37 52 39 C52.46601942 46.22330097 52.46601942 46.22330097 50.5 49.5 C50.005 49.995 49.51 50.49 49 51 C49.495 51.474375 49.99 51.94875 50.5 52.4375 C52.72130097 56.23222249 52.83011036 59.70862588 52 64 C50.56508357 66.44633323 49.05696731 67.99445687 47 70 C47.66 70.66 48.32 71.32 49 72 C49.43977704 75.88469723 49.38641083 78.26077927 47.5625 81.75 C41.19663124 87.3395433 33.42236675 87.33226085 25.28515625 87.75 C22.61114828 87.95349169 20.42004144 88.2973936 17.875 89.0625 C8.83662622 91.24920333 0.63626669 90.20993983 -8 87 C-8.32613281 87.56589844 -8.65226562 88.13179687 -8.98828125 88.71484375 C-9.42527344 89.44832031 -9.86226563 90.18179688 -10.3125 90.9375 C-10.95638672 92.03384766 -10.95638672 92.03384766 -11.61328125 93.15234375 C-13.71862903 95.95749727 -15.93355786 95.989971 -19.3125 96.5 C-23.9403019 95.87250144 -24.78302621 94.55483338 -27.59741211 91.06884766 C-29.85992744 87.73158831 -31.01321365 84.28884194 -32.125 80.4375 C-32.36943848 79.62466553 -32.61387695 78.81183105 -32.86572266 77.97436523 C-42.86370841 43.3424717 -42.86370841 43.3424717 -37.94140625 33.98828125 C-35.40361055 30.75767486 -33.28651961 29.17543449 -29.25 28.625 C-24.7246142 29.1471599 -23.2328897 30.84229378 -20 34 C-19.67 34.66 -19.34 35.32 -19 36 C-18.59007812 35.4946875 -18.18015625 34.989375 -17.7578125 34.46875 C-17.21898437 33.8190625 -16.68015625 33.169375 -16.125 32.5 C-15.32449219 31.52546875 -15.32449219 31.52546875 -14.5078125 30.53125 C-14.01023437 30.0259375 -13.51265625 29.520625 -13 29 C-12.34 29 -11.68 29 -11 29 C-11.14086602 26.39547729 -11.28748464 23.79149803 -11.4375 21.1875 C-11.47681641 20.44951172 -11.51613281 19.71152344 -11.55664062 18.95117188 C-11.74381035 15.76928658 -11.98720793 13.03837622 -13 10 C-13.12781786 7.32605036 -13.04391871 4.67904143 -13 2 C-8.7259017 -0.40357455 -4.82288454 -1.01443917 0 0 Z " fill="#FCFCFC" transform="translate(400,554)"/>
<path d="M0 0 C0.84369141 0.43143311 1.68738281 0.86286621 2.55664062 1.30737305 C4.01360352 2.05241089 4.01360352 2.05241089 5.5 2.8125 C7.03140625 3.59560547 7.03140625 3.59560547 8.59375 4.39453125 C11.71987551 5.97107512 11.71987551 5.97107512 14.03979492 6.61157227 C17.93352726 7.782548 20.24363492 8.72564445 22.36328125 12.30078125 C23.03370168 13.62777321 23.6825918 14.9658052 24.3125 16.3125 C28.63710168 24.72677488 33.87230207 31.81645258 40 39 C40.56976563 39.67289063 41.13953125 40.34578125 41.7265625 41.0390625 C64.14593379 65.29797194 98.05281672 74.50774087 129.9140625 75.88671875 C130.93242187 75.92410156 131.95078125 75.96148438 133 76 C132.76023437 76.86044922 132.76023437 76.86044922 132.515625 77.73828125 C131.02884568 84.25983598 132.02802845 89.80401054 134.33203125 95.98046875 C135.12790871 98.38671815 135.24360606 100.4827374 135 103 C134.21625 102.67 133.4325 102.34 132.625 102 C126.81504446 100.39725364 121.42750326 100.17556493 115.6875 102.125 C111.31390782 105.17634338 108.03523407 109.01810095 106 114 C105.71519194 116.0742625 105.51125776 118.16071439 105.375 120.25 C105.30023438 121.32765625 105.22546875 122.4053125 105.1484375 123.515625 C105.07496094 124.74539063 105.07496094 124.74539063 105 126 C88.61784791 128.8358594 74.55837715 129.26803791 60 120 C52.99502345 114.47767186 48.82562784 107.96483174 45 100 C44.59652344 99.29488281 44.19304687 98.58976563 43.77734375 97.86328125 C43 96 43 96 44 93 C48.29 93 52.58 93 57 93 C57 92.34 57 91.68 57 91 C55.92105469 90.64228516 55.92105469 90.64228516 54.8203125 90.27734375 C51.57027657 88.80537457 49.48153578 86.98968699 46.875 84.5625 C46.02679688 83.78003906 45.17859375 82.99757813 44.3046875 82.19140625 C43.54414063 81.46824219 42.78359375 80.74507812 42 80 C41.40445313 79.45214844 40.80890625 78.90429688 40.1953125 78.33984375 C39 77 39 77 39 75 C38.34 75 37.68 75 37 75 C31.3527718 65.13976029 25.9671838 55.22185735 21 45 C18.47331375 50.52128214 18.47331375 50.52128214 17.3125 56.4375 C17.209375 57.613125 17.10625 58.78875 17 60 C6.39777614 50.33326648 0.53859497 37.04036577 -0.15820312 22.75708008 C-0.19576553 19.29417235 -0.17518427 15.8377144 -0.125 12.375 C-0.11597656 11.18003906 -0.10695312 9.98507812 -0.09765625 8.75390625 C-0.07431077 5.83572166 -0.04156656 2.91797224 0 0 Z " fill="#FCA49B" transform="translate(247,474)"/>
<path d="M0 0 C13.76719214 13.16442541 24.74368942 32.53393455 25.5 51.6875 C25.33192866 58.06128233 24.71659517 62.51869982 20 67 C0.57495671 82.6795718 -31.26903256 80.4340889 -54.5625 78 C-57.37833604 77.68754123 -60.18869741 77.35180546 -63 77 C-61.72528471 73.55645633 -60.21648515 70.67650801 -58.1875 67.625 C-54.17906037 61.10146099 -50.394024 52.42252069 -49.8359375 44.7421875 C-49 43 -49 43 -45.68359375 41.4375 C-44.27309231 40.94420163 -42.85732357 40.46578817 -41.4375 40 C-39.96516762 39.48062937 -38.49379709 38.95852342 -37.0234375 38.43359375 C-36.32057617 38.18593262 -35.61771484 37.93827148 -34.89355469 37.68310547 C-19.40255336 32.0946808 -9.28100496 20.53750013 -2.34765625 6.0390625 C-0.9615633 3.04384476 -0.9615633 3.04384476 0 0 Z " fill="#FCFCFC" transform="translate(631,518)"/>
<path d="M0 0 C7.50345414 5.08342118 12.60468996 12.10679897 14.78515625 20.98046875 C16.20612706 30.21677902 14.97274095 38.67349431 10.23046875 46.78125 C9.54984375 47.668125 8.86921875 48.555 8.16796875 49.46875 C7.63171875 50.29375 7.09546875 51.11875 6.54296875 51.96875 C0.12039834 58.72935043 -8.60981076 62.6357819 -17.89697266 62.89990234 C-26.01215543 62.92347718 -32.008143 62.30984808 -38.83203125 57.46875 C-39.47398437 57.0459375 -40.1159375 56.623125 -40.77734375 56.1875 C-47.80077935 50.9579289 -52.26101534 41.95223589 -53.83203125 33.46875 C-54.70448573 23.05619546 -52.00191662 14.83631577 -45.83203125 6.46875 C-33.36835539 -7.05073311 -15.75522359 -9.328394 0 0 Z " fill="#040303" transform="translate(524.83203125,441.53125)"/>
<path d="M0 0 C7.00735146 4.90514602 11.7907579 11.70014091 14 20 C15.09837954 32.20989346 13.88871588 41.65349024 5.875 51.3125 C-0.53231762 58.05927815 -8.36369941 62.01509957 -17.69970703 62.39428711 C-28.5873192 62.60453229 -36.65306492 60.21840935 -44.9375 52.75 C-52.52610484 44.40067927 -54.33394511 35.15021992 -54.2109375 24.21484375 C-53.65758914 15.78140489 -49.18392518 8.13804881 -43.21875 2.23828125 C-30.11390965 -8.42282863 -14.12228946 -8.4145308 0 0 Z " fill="#040303" transform="translate(386,442)"/>
<path d="M0 0 C0.52843506 0.25692627 1.05687012 0.51385254 1.60131836 0.77856445 C4.04400989 1.96221354 6.49069557 3.13737799 8.9375 4.3125 C9.76830078 4.71662109 10.59910156 5.12074219 11.45507812 5.53710938 C15.60094461 7.52131785 19.5186751 9.1834265 23.96484375 10.3671875 C27.47013565 11.48704596 27.81577582 11.67114734 29.7265625 15.08203125 C30.17128906 16.92861328 30.17128906 16.92861328 30.625 18.8125 C30.9950481 20.16521488 31.37422055 21.51546142 31.76171875 22.86328125 C31.95556152 23.54986816 32.1494043 24.23645508 32.34912109 24.94384766 C35.10212054 33.64068236 39.81060397 41.35772133 46 48 C46 48.66 46 49.32 46 50 C46.66 50 47.32 50 48 50 C48.66 50.70125 49.32 51.4025 50 52.125 C59.85981967 62.30194837 74.16559607 65.86471195 87.8125 66.5625 C88.60076172 66.60568359 89.38902344 66.64886719 90.20117188 66.69335938 C92.13394215 66.79878321 94.06695026 66.89983094 96 67 C96 67.33 96 67.66 96 68 C94.27232273 68.320632 92.54271394 68.63085147 90.8125 68.9375 C89.36810547 69.19853516 89.36810547 69.19853516 87.89453125 69.46484375 C77.03572196 70.95697702 66.18394505 71.18643701 55.24267578 71.18530273 C52.87124026 71.18750349 50.50026099 71.20578134 48.12890625 71.22460938 C33.17675648 71.28044104 17.49531408 70.36613145 6.13671875 59.4765625 C-4.6507869 46.97331098 -9.07773577 33.44673897 -8.23974609 17.14306641 C-7.5061467 10.58549465 -4.73836473 4.54274041 0 0 Z " fill="#FCFCFC" transform="translate(245,549)"/>
<path d="M0 0 C7.80883737 5.42741888 12.97869286 11.93607857 16 21 C17.37935941 29.03274008 15.27944724 35.61339267 10.8125 42.25 C4.30863778 48.60933195 -2.74957898 49.71477551 -11.5625 50.5625 C-22.80251793 51.32007405 -22.80251793 51.32007405 -31.9375 57.1875 C-34.66027153 59.58023862 -36.54188397 59.64426352 -40.08984375 59.4453125 C-42 59 -42 59 -44.5625 56.9375 C-46.51496275 52.94768481 -46.38390851 51.22456281 -45 47 C-40.79991982 40.92897501 -35.05324538 37.752137 -28 36 C-24.3991441 35.44751099 -20.7847074 35.05150204 -17.15283203 34.77026367 C-12.1991922 34.34509064 -8.42587779 33.32149816 -4 31 C-1.17553029 26.76329544 -1.21994534 22.97483837 -2 18 C-4.0424351 14.95726583 -4.0424351 14.95726583 -7 13 C-7.7425 12.38125 -8.485 11.7625 -9.25 11.125 C-13.38420166 9.43373568 -16.74980805 9.71248257 -21 11 C-23.36882163 12.3915781 -23.36882163 12.3915781 -25.625 14.0625 C-28.62135478 16.21841381 -30.02133579 17.00426716 -33.75 17.75 C-37 17 -37 17 -40 14.4375 C-42 11 -42 11 -42.25 7.5 C-40.16786139 1.67001189 -36.0968746 -0.68945338 -31 -3.875 C-20.80471604 -7.67818458 -9.07213326 -5.42037696 0 0 Z " fill="#050505" transform="translate(645,235)"/>
<path d="M0 0 C3.20512335 2.13204241 6.10107442 4.47396526 9 7 C10.03125 7.763125 11.0625 8.52625 12.125 9.3125 C19.47448545 16.18267118 24.281645 25.271811 28.01953125 34.5234375 C28.34308594 35.32007813 28.66664063 36.11671875 29 36.9375 C29.4021875 38.00291016 29.4021875 38.00291016 29.8125 39.08984375 C32.32983535 43.13911015 37.39035288 44.70697313 41.57055664 46.70092773 C55.19146298 53.24187634 67.41372766 60.97946232 73.34765625 75.546875 C75.65550158 84.22547901 74.04005998 93.04556861 70.6875 101.1875 C68.80307099 104.32821501 66.7569737 106.59648447 64 109 C63.34 109 62.68 109 62 109 C62.13277344 108.40832031 62.26554688 107.81664062 62.40234375 107.20703125 C62.76767793 105.57236079 63.12950483 103.93690352 63.48828125 102.30078125 C63.84531348 100.69549893 64.22614846 99.09540615 64.625 97.5 C66.21312918 86.91247213 63.91505816 77.72419047 57.6484375 69.02734375 C50.4489832 60.17303858 40.59140203 55.66871393 29.5625 53.4375 C23.54645237 51.84773303 23.54645237 51.84773303 21.25 48.28515625 C20.4426001 46.05152692 19.71168648 43.78908383 19.05078125 41.5078125 C14.93618317 27.77209104 3.90600358 14.73974913 -8 7 C-26.09990811 -2.68636322 -44.19228812 -4.22333171 -64 1 C-67.8318725 2.2148279 -71.56824156 3.62841465 -75.3046875 5.109375 C-78 6 -78 6 -80 5 C-61.06987113 -16.04731434 -22.55808637 -12.08167173 0 0 Z " fill="#F9D4D1" transform="translate(520,318)"/>
<path d="M0 0 C2.625 2.875 2.625 2.875 4 5 C2.80375 4.5875 1.6075 4.175 0.375 3.75 C-21.61930363 -3.53517944 -42.51371217 -6.72891459 -64 4 C-80.05111189 13.42385925 -90.12945256 28.03057559 -97 45 C-97.32871094 46.31484375 -97.32871094 46.31484375 -97.6640625 47.65625 C-99 50 -99 50 -102.30859375 51.37109375 C-103.68070505 51.74241037 -105.05741233 52.09702461 -106.4375 52.4375 C-118.05761286 55.6877993 -129.54792362 60.65955914 -135.8125 71.5 C-142.02305005 83.20042194 -140.58491483 95.39854019 -138 108 C-141.02915924 106.68521599 -142.73521878 105.45665439 -144.625 102.75 C-145.02976562 102.18796875 -145.43453125 101.6259375 -145.8515625 101.046875 C-150.55076102 92.67143274 -150.5485099 81.13115594 -148.23046875 71.953125 C-141.98590276 58.09592556 -128.20750043 49.9308749 -114.67138672 44.62231445 C-110.18229783 42.79543616 -107.11878518 40.85564102 -104 37 C-102.81772278 34.28653035 -102.81772278 34.28653035 -102.125 31.375 C-97.73687299 17.16582682 -87.64470129 6.10478258 -74.98046875 -1.46875 C-53.18120104 -12.66837378 -20.43935106 -15.88824307 0 0 Z " fill="#FAD5D2" transform="translate(411,319)"/>
<path d="M0 0 C0.99 0.99 0.99 0.99 2 2 C1.625 5.625 1.625 5.625 1 9 C-4.69240358 10.27638946 -8.32968402 9.5236002 -13.5 7.125 C-24.86146218 1.99477275 -38.84042613 0.77330441 -50.7421875 5.03515625 C-59.9897274 8.98695963 -67.94190636 14.68978081 -74.1015625 22.75 C-76 25 -76 25 -79.0625 25.5 C-82 25 -82 25 -83.9375 23.8125 C-85 22 -85 22 -84.75390625 19.625 C-83.45267665 15.09429384 -80.23954622 12.30690918 -77 9 C-76.02353516 7.98679687 -76.02353516 7.98679687 -75.02734375 6.953125 C-53.77776454 -13.54179626 -25.14511634 -11.81557168 0 0 Z " fill="#070404" transform="translate(494,522)"/>
<path d="M0 0 C0.33 0 0.66 0 1 0 C0.72069564 6.56365255 -1.72227188 11.03975796 -6 16 C-13.80342244 22.35702149 -23.40404297 22.55760291 -33 22 C-34.485 21.505 -34.485 21.505 -36 21 C-36.37125 22.27617187 -36.37125 22.27617187 -36.75 23.578125 C-42.25724016 38.65419493 -54.36477194 51.05348558 -68.72900391 57.8137207 C-74.23615421 60.15761591 -79.19090284 60.42370872 -85.125 60.3125 C-85.99253906 60.31572266 -86.86007812 60.31894531 -87.75390625 60.32226562 C-92.55686743 60.28205819 -96.49281494 59.85459582 -101 58 C-101 57.67 -101 57.34 -101 57 C-99.81664062 56.90203125 -98.63328125 56.8040625 -97.4140625 56.703125 C-82.27206953 55.32497769 -69.47596356 51.85437981 -59 40 C-58.46890625 39.41089844 -57.9378125 38.82179688 -57.390625 38.21484375 C-50.29823004 29.82008422 -45.78587863 19.57274915 -43 9 C-42.21238281 9.2165625 -41.42476563 9.433125 -40.61328125 9.65625 C-30.00780991 12.36723439 -19.52801541 14.05829079 -9.23046875 9.421875 C-5.93809022 7.32305576 -3.65624756 4.67676156 -1.27734375 1.609375 C-0.85582031 1.07828125 -0.43429687 0.5471875 0 0 Z " fill="#FED7D4" transform="translate(551,384)"/>
<path d="M0 0 C0.41572266 0.87398437 0.41572266 0.87398437 0.83984375 1.765625 C6.33125999 12.3416859 15.45125187 19.81290872 26 25 C22.54730734 30.17903899 15.75814771 31.15342655 10 33 C8.19208984 33.58201172 8.19208984 33.58201172 6.34765625 34.17578125 C-0.78116316 36.34199709 -7.55023083 37.69592779 -15 38 C-17.125 31.25 -17.125 31.25 -16 29 C-15.87759865 27.23229673 -15.82448847 25.45939538 -15.8125 23.6875 C-15.79123047 22.27017578 -15.79123047 22.27017578 -15.76953125 20.82421875 C-16.01175665 17.85593118 -16.75973393 15.69132835 -18 13 C-17.49025635 12.64172119 -16.9805127 12.28344238 -16.45532227 11.91430664 C-14.15699741 10.29805514 -11.85973648 8.68029803 -9.5625 7.0625 C-8.35883789 6.21655273 -8.35883789 6.21655273 -7.13085938 5.35351562 C-6.36708984 4.81533203 -5.60332031 4.27714844 -4.81640625 3.72265625 C-3.75595093 2.97640991 -3.75595093 2.97640991 -2.67407227 2.21508789 C-1.05303063 1.10532955 -1.05303063 1.10532955 0 0 Z " fill="#D17C75" transform="translate(475,573)"/>
<path d="M0 0 C1.37562854 1.28965176 2.70766393 2.62689293 4 4 C4 4.66 4 5.32 4 6 C16.11016951 12.11013098 25.49561456 13.85161124 38.72265625 9.65625 C41 9 41 9 44 9 C44.30292969 9.89460938 44.60585938 10.78921875 44.91796875 11.7109375 C50.35716971 27.40930828 56.7949561 41.62502929 72 50 C73.03833984 50.58201172 73.03833984 50.58201172 74.09765625 51.17578125 C80.82880504 54.74238225 87.31405813 56.22021548 94.9375 56.625 C95.62134766 56.66367187 96.30519531 56.70234375 97.00976562 56.7421875 C98.67279513 56.83522412 100.33635847 56.91863787 102 57 C98.2757374 60.7242626 93.10494668 60.20847558 88.0625 60.3125 C82.16029868 60.28169519 79.39617728 59.83256481 75 56 C71.536509 54.35513136 68.72993487 53.86524474 64.9375 53.625 C56.31226195 52.12546401 50.68085525 45.02781955 45.72705078 38.26123047 C41.97694687 32.80583555 38.9214194 27.37302474 37 21 C36.01 21.33 35.02 21.66 34 22 C23.93816055 22.87183552 15.90439238 21.33726526 7.125 16.375 C2.9403527 11.69804125 0 6.30808381 0 0 Z " fill="#FDD6D3" transform="translate(306,384)"/>
<path d="M0 0 C4.01855659 2.26980639 6.46370236 5.19555353 9 9 C9.82107258 14.59822216 9.20403613 19.2491878 6 24 C1.0751504 28.44437647 -1.95161487 29.3563486 -8.45703125 29.28125 C-13.18112709 28.75876935 -15.78578919 26.33563189 -18.875 22.9375 C-20.64630636 18.31242228 -20.64542523 13.88371757 -20 9 C-15.83949704 0.37080867 -9.09529608 -1.63949543 0 0 Z " fill="#FAFAFA" transform="translate(525,449)"/>
<path d="M0 0 C3.66360754 1.25745342 6.27555006 3.22881135 8.9375 6.0625 C11.06910661 11.95576534 11.01148334 17.82142049 8.375 23.5 C4.51073716 27.5676451 1.05798327 29.1479244 -4.5 29.4375 C-8.97697941 29.27922295 -11.56158814 27.94721017 -15 25 C-18.68057209 20.8117628 -19.45742674 16.80377221 -19.421875 11.35546875 C-18.68408378 7.23613444 -16.06558431 4.69264218 -13 2 C-8.72720408 -0.84853061 -5.01486399 -0.61639451 0 0 Z " fill="#FBFBFB" transform="translate(384,449)"/>
<path d="M0 0 C0.928125 0.845625 1.85625 1.69125 2.8125 2.5625 C10.60201799 9.24149608 18.98863943 15.27566112 29.5 15.3125 C31.15515625 15.33763672 31.15515625 15.33763672 32.84375 15.36328125 C36.31718631 14.96349217 38.07525248 13.81795094 41 12 C44.83598743 13.27866248 45.22881584 14.62932036 47.25 18.0625 C50.90125565 24.01613979 55.07254903 29.07254903 60 34 C58.73308493 34.67408308 57.46129251 35.33900497 56.1875 36 C55.47980469 36.37125 54.77210938 36.7425 54.04296875 37.125 C52 38 52 38 49 38 C45.31332089 34.15412338 39 27.51883764 39 22 C38.01 22.495 38.01 22.495 37 23 C26.19919517 23.87405357 18.6947272 23.49485756 10.08203125 16.42578125 C5.60005824 12.32606607 2.45298878 7.55031101 0 2 C0 1.34 0 0.68 0 0 Z " fill="#D37D76" transform="translate(294,405)"/>
<path d="M0 0 C0.495 0.99 0.495 0.99 1 2 C-3.07468046 10.59102208 -8.9318719 16.71793419 -17.24609375 21.21484375 C-20.35060992 22.09996113 -22.98685702 21.92491279 -26.18188477 21.66796875 C-29.84175295 21.39542959 -33.40334557 21.15196254 -37 22 C-40.44671843 25.12737391 -41.27862752 27.55774843 -43 32 C-48.94 31.01 -48.94 31.01 -55 30 C-54.154375 28.906875 -53.30875 27.81375 -52.4375 26.6875 C-48.65048031 21.65320414 -45.32268747 16.34775735 -42 11 C-36.25 12.875 -36.25 12.875 -34 14 C-23.87580848 15.49484707 -16.35880308 12.24196126 -8 7 C-5.14319139 4.83016589 -2.50865479 2.56319076 0 0 Z " fill="#D37D76" transform="translate(560,406)"/>
<path d="M0 0 C0.33 0 0.66 0 1 0 C1.15855469 0.61746094 1.31710937 1.23492187 1.48046875 1.87109375 C5.67275533 17.08839916 14.22086651 27.4291566 27.890625 35.37109375 C31.54126478 37.28355203 35.07157185 38.76755195 39 40 C39 40.33 39 40.66 39 41 C26.58741231 41.54054817 14.59990059 40.71466386 5 32 C-1.00077244 24.89614439 -2.43132485 17.05782193 -2 8 C-1.25 1.25 -1.25 1.25 0 0 Z " fill="#0B0706" transform="translate(478,334)"/>
<path d="M0 0 C3.64256342 3.64256342 2.49325429 9.32903913 2.50854492 14.25 C2.31672714 23.04046447 -0.30160544 27.98460019 -6.1875 34.375 C-16.68056577 40.43766022 -27.14586294 41.17518429 -39 41 C-36.3637791 39.2425194 -34.4366603 38.39520342 -31.5 37.375 C-18.14419717 32.11066896 -9.27254413 22.58443286 -3.22265625 9.85546875 C-1.82336201 6.58746847 -0.78685255 3.46215122 0 0 Z " fill="#080505" transform="translate(376,334)"/>
<path d="M0 0 C4.62 0 9.24 0 14 0 C12.68 1.65 11.36 3.3 10 5 C9.01 5 8.02 5 7 5 C14.05237392 16.94755112 24.36489272 26.09275366 37.90209961 29.78515625 C44.53320733 31.45200051 51.15893735 32.67110276 58 33 C58 33.33 58 33.66 58 34 C43.102048 35.89180343 30.05720996 35.31237683 17 27 C9.99502345 21.47767186 5.82562784 14.96483174 2 7 C1.61714844 6.29488281 1.23429687 5.58976563 0.83984375 4.86328125 C0 3 0 3 0 0 Z " fill="#CD7973" transform="translate(290,567)"/>
<path d="M0 0 C4.29 0.33 8.58 0.66 13 1 C9.65291956 13.01011217 3.64501669 22.25921847 -7 29 C-19.20408297 35.27050275 -31.61384885 36.02055112 -45 34 C-45 33.67 -45 33.34 -45 33 C-43.94683594 32.92523437 -42.89367187 32.85046875 -41.80859375 32.7734375 C-27.40599028 31.54464395 -14.85976944 28.06996803 -4 18 C-3.33097656 17.39800781 -2.66195312 16.79601562 -1.97265625 16.17578125 C1.33232318 13.06004399 3.77176683 10.50352162 5 6 C4.175 5.38125 3.35 4.7625 2.5 4.125 C1.675 3.42375 0.85 2.7225 0 2 C0 1.34 0 0.68 0 0 Z " fill="#D07B74" transform="translate(552,567)"/>
<path d="M0 0 C4.6552625 0.81671272 6.52627604 1.9963421 9.5625 5.625 C10.29535112 8.76898723 10.26847441 11.47753075 9.5625 14.625 C6.8716248 18.2128336 4.71973728 19.4469635 0.3125 20.125 C-3.63940033 19.59807996 -4.31901139 19.29722993 -6.9375 16.5625 C-9.10457528 13.68662262 -9.43111921 12.74836189 -9.625 9 C-7.75831537 3.69468579 -5.65062963 1.02738721 0 0 Z " fill="#070707" transform="translate(593.4375,295.375)"/>
<path d="M0 0 C0.66 0.66 1.32 1.32 2 2 C0.741875 2.391875 -0.51625 2.78375 -1.8125 3.1875 C-4.60849584 4.26136035 -5.91032138 4.90471647 -8 7.125 C-12.98533096 21.4578265 -5.32774701 42.44998691 -0.8671875 56.16015625 C-0.07177585 58.76495026 0.51838276 61.32161838 1 64 C-3.28003359 60.5132485 -4.46411786 56.73188655 -6 51.625 C-6.25346191 50.79863037 -6.50692383 49.97226074 -6.76806641 49.12084961 C-16.96029307 14.5260182 -16.96029307 14.5260182 -11.94140625 4.98828125 C-8.35402029 0.42154957 -5.62211349 -0.35138209 0 0 Z " fill="#CBCDCE" transform="translate(374,583)"/>
<path d="M0 0 C0.66 0.33 1.32 0.66 2 1 C1.62488281 1.51046875 1.24976563 2.0209375 0.86328125 2.546875 C-7.96026044 15.08208284 -9.82746839 26.00543467 -10 41 C-12.58145619 39.70927191 -12.67974178 38.80800565 -13.625 36.125 C-15.86001273 28.85544829 -16.24360646 21.99307064 -13.125 14.9375 C-9.83840525 9.00257673 -4.96966627 4.53542359 0 0 Z " fill="#D57F78" transform="translate(312,447)"/>
<path d="M0 0 C7.4405708 4.17397874 12.97129492 10.93328586 15.56640625 19.10546875 C17.02293132 25.46956477 15.59676895 31.15131396 13 37 C12.34 37.66 11.68 38.32 11 39 C10.99742187 38.01902344 10.99484375 37.03804688 10.9921875 36.02734375 C10.709677 22.9469445 7.33361688 12.97656322 0 2 C0 1.34 0 0.68 0 0 Z " fill="#D57F78" transform="translate(543,448)"/>
<path d="M0 0 C3.375 0.9375 3.375 0.9375 5.375 3.9375 C5.72440459 6.73273674 5.74733787 8.3023354 4.3125 10.75 C1.28124457 12.60786623 -1.15922859 12.30883265 -4.625 11.9375 C-6.5625 10.75 -6.5625 10.75 -7.625 8.9375 C-8.21489164 5.65096084 -7.90537501 4.36367001 -6.0625 1.5625 C-3.625 -0.0625 -3.625 -0.0625 0 0 Z " fill="#F3F3F3" transform="translate(347.625,475.0625)"/>
<path d="M0 0 C1.8125 1.0625 1.8125 1.0625 3 3 C3.3125 6.5625 3.3125 6.5625 3 10 C0.67471713 12.32528287 0.15334102 12.29511025 -3 12.3125 C-3.70125 12.32925781 -4.4025 12.34601563 -5.125 12.36328125 C-5.74375 12.24339844 -6.3625 12.12351562 -7 12 C-9.31361802 8.52957297 -9.51020728 7.08165827 -9 3 C-6.30254095 0.00282328 -3.95012118 -0.60771095 0 0 Z " fill="#F5F5F5" transform="translate(489,475)"/>
<path d="M0 0 C2.28882919 2.94278039 3.82039068 5.46117205 5 9 C3.75539217 9.67667998 2.50403104 10.34094719 1.25 11 C0.55390625 11.37125 -0.1421875 11.7425 -0.859375 12.125 C-3 13 -3 13 -7 13 C-7.99 10.03 -8.98 7.06 -10 4 C-4.5 0 -4.5 0 0 0 Z " fill="#F8A298" transform="translate(467,582)"/>
<path d="M0 0 C0.66 0.66 1.32 1.32 2 2 C0.01432292 2.61848958 -1.97135417 3.23697917 -3.95703125 3.85546875 C-6.82603818 5.46277091 -7.63639322 7.01305181 -9 10 C-9.512489 12.64466251 -9.9095706 15.14794753 -10.1875 17.8125 C-10.26935547 18.50537109 -10.35121094 19.19824219 -10.43554688 19.91210938 C-10.63424293 21.60686984 -10.81859203 23.30330194 -11 25 C-11.33 25 -11.66 25 -12 25 C-13.34562567 18.94468449 -14.84822122 10.6619607 -11.953125 4.92578125 C-8.26959102 0.45137085 -5.6417759 -0.35261099 0 0 Z " fill="#BDBFC0" transform="translate(374,583)"/>
<path d="M0 0 C3.96 0 7.92 0 12 0 C9 3 9 3 6.73828125 3.29296875 C5.93777344 3.25816406 5.13726562 3.22335937 4.3125 3.1875 C3.10013672 3.14689453 3.10013672 3.14689453 1.86328125 3.10546875 C0.94095703 3.05326172 0.94095703 3.05326172 0 3 C0 2.01 0 1.02 0 0 Z " fill="#F9A399" transform="translate(415,564)"/>
<path d="M0 0 C1.66519519 0.34060811 3.33157466 0.67558396 5 1 C5 1.33 5 1.66 5 2 C-1.44070471 2.10655578 -7.62641289 1.96205088 -14 1 C-14 0.67 -14 0.34 -14 0 C-12.41773035 -0.19627391 -10.83410729 -0.38165538 -9.25 -0.5625 C-8.36828125 -0.66691406 -7.4865625 -0.77132812 -6.578125 -0.87890625 C-4.08538187 -0.99598964 -2.36542929 -0.72165639 0 0 Z " fill="#9E5D58" transform="translate(521,600)"/>
<path d="M0 0 C4.29 0.33 8.58 0.66 13 1 C13 1.33 13 1.66 13 2 C6.93303301 2.77040851 1.11485027 3.09706112 -5 3 C-5 2.67 -5 2.34 -5 2 C-3.35 1.67 -1.7 1.34 0 1 C0 0.67 0 0.34 0 0 Z " fill="#A3605B" transform="translate(335,599)"/>
<path d="M0 0 C0.99 0.66 1.98 1.32 3 2 C-0.96 2 -4.92 2 -9 2 C-4 -1.33333333 -4 -1.33333333 0 0 Z " fill="#291918" transform="translate(346,373)"/>
</svg>
